<?xml version="1.0" encoding="utf-8" standalone="no"?>
<!DOCTYPE svg PUBLIC "-//W3C//DTD SVG 1.1//EN"
  "http://www.w3.org/Graphics/SVG/1.1/DTD/svg11.dtd">
<svg xmlns:xlink="http://www.w3.org/1999/xlink" width="540.643984pt" height="566.023125pt" viewBox="0 0 540.643984 566.023125" xmlns="http://www.w3.org/2000/svg" version="1.1">
 <metadata>
  <rdf:RDF xmlns:dc="http://purl.org/dc/elements/1.1/" xmlns:cc="http://creativecommons.org/ns#" xmlns:rdf="http://www.w3.org/1999/02/22-rdf-syntax-ns#">
   <cc:Work>
    <dc:type rdf:resource="http://purl.org/dc/dcmitype/StillImage"/>
    <dc:date>2026-01-31T15:59:33.760946</dc:date>
    <dc:format>image/svg+xml</dc:format>
    <dc:creator>
     <cc:Agent>
      <dc:title>Matplotlib v3.10.8, https://matplotlib.org/</dc:title>
     </cc:Agent>
    </dc:creator>
   </cc:Work>
  </rdf:RDF>
 </metadata>
 <defs>
  <style type="text/css">*{stroke-linejoin: round; stroke-linecap: butt}</style>
 </defs>
 <g id="figure_1">
  <g id="patch_1">
   <path d="M 0 566.023125 
L 540.643984 566.023125 
L 540.643984 0 
L 0 0 
z
" style="fill: #ffffff"/>
  </g>
  <g id="axes_1">
   <g id="patch_2">
    <path d="M 43.525469 524.979531 
L 530.385469 524.979531 
L 530.385469 38.119531 
L 43.525469 38.119531 
z
" style="fill: #ffffff"/>
   </g>
   <g id="matplotlib.axis_1">
    <g id="xtick_1">
     <g id="line2d_1">
      <path d="M 43.525469 524.979531 
L 43.525469 38.119531 
" clip-path="url(#p709cf9d457)" style="fill: none; stroke-dasharray: 0.8,1.32; stroke-dashoffset: 0; stroke: #e0e0e0; stroke-opacity: 0.7; stroke-width: 0.8"/>
     </g>
     <g id="line2d_2">
      <defs>
       <path id="mc5dd3eaddc" d="M 0 0 
L 0 3.5 
" style="stroke: #000000; stroke-width: 0.8"/>
      </defs>
      <g>
       <use xlink:href="#mc5dd3eaddc" x="43.525469" y="524.979531" style="stroke: #000000; stroke-width: 0.8"/>
      </g>
     </g>
     <g id="text_1">
      <text style="font-size: 11px; font-family: 'Arial', 'Helvetica', 'DejaVu Sans', sans-serif; text-anchor: middle" x="43.525469" y="539.853125" transform="rotate(-0 43.525469 539.853125)">−4</text>
     </g>
    </g>
    <g id="xtick_2">
     <g id="line2d_3">
      <path d="M 97.621024 524.979531 
L 97.621024 38.119531 
" clip-path="url(#p709cf9d457)" style="fill: none; stroke-dasharray: 0.8,1.32; stroke-dashoffset: 0; stroke: #e0e0e0; stroke-opacity: 0.7; stroke-width: 0.8"/>
     </g>
     <g id="line2d_4">
      <g>
       <use xlink:href="#mc5dd3eaddc" x="97.621024" y="524.979531" style="stroke: #000000; stroke-width: 0.8"/>
      </g>
     </g>
     <g id="text_2">
      <text style="font-size: 11px; font-family: 'Arial', 'Helvetica', 'DejaVu Sans', sans-serif; text-anchor: middle" x="97.621024" y="539.853125" transform="rotate(-0 97.621024 539.853125)">−3</text>
     </g>
    </g>
    <g id="xtick_3">
     <g id="line2d_5">
      <path d="M 151.71658 524.979531 
L 151.71658 38.119531 
" clip-path="url(#p709cf9d457)" style="fill: none; stroke-dasharray: 0.8,1.32; stroke-dashoffset: 0; stroke: #e0e0e0; stroke-opacity: 0.7; stroke-width: 0.8"/>
     </g>
     <g id="line2d_6">
      <g>
       <use xlink:href="#mc5dd3eaddc" x="151.71658" y="524.979531" style="stroke: #000000; stroke-width: 0.8"/>
      </g>
     </g>
     <g id="text_3">
      <text style="font-size: 11px; font-family: 'Arial', 'Helvetica', 'DejaVu Sans', sans-serif; text-anchor: middle" x="151.71658" y="539.853125" transform="rotate(-0 151.71658 539.853125)">−2</text>
     </g>
    </g>
    <g id="xtick_4">
     <g id="line2d_7">
      <path d="M 205.812135 524.979531 
L 205.812135 38.119531 
" clip-path="url(#p709cf9d457)" style="fill: none; stroke-dasharray: 0.8,1.32; stroke-dashoffset: 0; stroke: #e0e0e0; stroke-opacity: 0.7; stroke-width: 0.8"/>
     </g>
     <g id="line2d_8">
      <g>
       <use xlink:href="#mc5dd3eaddc" x="205.812135" y="524.979531" style="stroke: #000000; stroke-width: 0.8"/>
      </g>
     </g>
     <g id="text_4">
      <text style="font-size: 11px; font-family: 'Arial', 'Helvetica', 'DejaVu Sans', sans-serif; text-anchor: middle" x="205.812135" y="539.853125" transform="rotate(-0 205.812135 539.853125)">−1</text>
     </g>
    </g>
    <g id="xtick_5">
     <g id="line2d_9">
      <path d="M 259.907691 524.979531 
L 259.907691 38.119531 
" clip-path="url(#p709cf9d457)" style="fill: none; stroke-dasharray: 0.8,1.32; stroke-dashoffset: 0; stroke: #e0e0e0; stroke-opacity: 0.7; stroke-width: 0.8"/>
     </g>
     <g id="line2d_10">
      <g>
       <use xlink:href="#mc5dd3eaddc" x="259.907691" y="524.979531" style="stroke: #000000; stroke-width: 0.8"/>
      </g>
     </g>
     <g id="text_5">
      <text style="font-size: 11px; font-family: 'Arial', 'Helvetica', 'DejaVu Sans', sans-serif; text-anchor: middle" x="259.907691" y="539.853125" transform="rotate(-0 259.907691 539.853125)">0</text>
     </g>
    </g>
    <g id="xtick_6">
     <g id="line2d_11">
      <path d="M 314.003247 524.979531 
L 314.003247 38.119531 
" clip-path="url(#p709cf9d457)" style="fill: none; stroke-dasharray: 0.8,1.32; stroke-dashoffset: 0; stroke: #e0e0e0; stroke-opacity: 0.7; stroke-width: 0.8"/>
     </g>
     <g id="line2d_12">
      <g>
       <use xlink:href="#mc5dd3eaddc" x="314.003247" y="524.979531" style="stroke: #000000; stroke-width: 0.8"/>
      </g>
     </g>
     <g id="text_6">
      <text style="font-size: 11px; font-family: 'Arial', 'Helvetica', 'DejaVu Sans', sans-serif; text-anchor: middle" x="314.003247" y="539.853125" transform="rotate(-0 314.003247 539.853125)">1</text>
     </g>
    </g>
    <g id="xtick_7">
     <g id="line2d_13">
      <path d="M 368.098802 524.979531 
L 368.098802 38.119531 
" clip-path="url(#p709cf9d457)" style="fill: none; stroke-dasharray: 0.8,1.32; stroke-dashoffset: 0; stroke: #e0e0e0; stroke-opacity: 0.7; stroke-width: 0.8"/>
     </g>
     <g id="line2d_14">
      <g>
       <use xlink:href="#mc5dd3eaddc" x="368.098802" y="524.979531" style="stroke: #000000; stroke-width: 0.8"/>
      </g>
     </g>
     <g id="text_7">
      <text style="font-size: 11px; font-family: 'Arial', 'Helvetica', 'DejaVu Sans', sans-serif; text-anchor: middle" x="368.098802" y="539.853125" transform="rotate(-0 368.098802 539.853125)">2</text>
     </g>
    </g>
    <g id="xtick_8">
     <g id="line2d_15">
      <path d="M 422.194358 524.979531 
L 422.194358 38.119531 
" clip-path="url(#p709cf9d457)" style="fill: none; stroke-dasharray: 0.8,1.32; stroke-dashoffset: 0; stroke: #e0e0e0; stroke-opacity: 0.7; stroke-width: 0.8"/>
     </g>
     <g id="line2d_16">
      <g>
       <use xlink:href="#mc5dd3eaddc" x="422.194358" y="524.979531" style="stroke: #000000; stroke-width: 0.8"/>
      </g>
     </g>
     <g id="text_8">
      <text style="font-size: 11px; font-family: 'Arial', 'Helvetica', 'DejaVu Sans', sans-serif; text-anchor: middle" x="422.194358" y="539.853125" transform="rotate(-0 422.194358 539.853125)">3</text>
     </g>
    </g>
    <g id="xtick_9">
     <g id="line2d_17">
      <path d="M 476.289913 524.979531 
L 476.289913 38.119531 
" clip-path="url(#p709cf9d457)" style="fill: none; stroke-dasharray: 0.8,1.32; stroke-dashoffset: 0; stroke: #e0e0e0; stroke-opacity: 0.7; stroke-width: 0.8"/>
     </g>
     <g id="line2d_18">
      <g>
       <use xlink:href="#mc5dd3eaddc" x="476.289913" y="524.979531" style="stroke: #000000; stroke-width: 0.8"/>
      </g>
     </g>
     <g id="text_9">
      <text style="font-size: 11px; font-family: 'Arial', 'Helvetica', 'DejaVu Sans', sans-serif; text-anchor: middle" x="476.289913" y="539.853125" transform="rotate(-0 476.289913 539.853125)">4</text>
     </g>
    </g>
    <g id="xtick_10">
     <g id="line2d_19">
      <path d="M 530.385469 524.979531 
L 530.385469 38.119531 
" clip-path="url(#p709cf9d457)" style="fill: none; stroke-dasharray: 0.8,1.32; stroke-dashoffset: 0; stroke: #e0e0e0; stroke-opacity: 0.7; stroke-width: 0.8"/>
     </g>
     <g id="line2d_20">
      <g>
       <use xlink:href="#mc5dd3eaddc" x="530.385469" y="524.979531" style="stroke: #000000; stroke-width: 0.8"/>
      </g>
     </g>
     <g id="text_10">
      <text style="font-size: 11px; font-family: 'Arial', 'Helvetica', 'DejaVu Sans', sans-serif; text-anchor: middle" x="530.385469" y="539.853125" transform="rotate(-0 530.385469 539.853125)">5</text>
     </g>
    </g>
    <g id="text_11">
     <!-- $x_1$ -->
     <g transform="translate(279.465469 556.060312)">
      <text>
       <tspan x="0" y="-0.34375" style="font-style: oblique; font-size: 14px; font-family: 'DejaVu Sans'">x</tspan>
       <tspan x="8.285156" y="1.953125" style="font-size: 9.8px; font-family: 'DejaVu Sans'">1</tspan>
      </text>
     </g>
    </g>
   </g>
   <g id="matplotlib.axis_2">
    <g id="ytick_1">
     <g id="line2d_21">
      <path d="M 43.525469 524.979531 
L 530.385469 524.979531 
" clip-path="url(#p709cf9d457)" style="fill: none; stroke-dasharray: 0.8,1.32; stroke-dashoffset: 0; stroke: #e0e0e0; stroke-opacity: 0.7; stroke-width: 0.8"/>
     </g>
     <g id="line2d_22">
      <defs>
       <path id="m15e4c47bb6" d="M 0 0 
L -3.5 0 
" style="stroke: #000000; stroke-width: 0.8"/>
      </defs>
      <g>
       <use xlink:href="#m15e4c47bb6" x="43.525469" y="524.979531" style="stroke: #000000; stroke-width: 0.8"/>
      </g>
     </g>
     <g id="text_12">
      <text style="font-size: 11px; font-family: 'Arial', 'Helvetica', 'DejaVu Sans', sans-serif; text-anchor: end" x="36.525469" y="528.916328" transform="rotate(-0 36.525469 528.916328)">−4</text>
     </g>
    </g>
    <g id="ytick_2">
     <g id="line2d_23">
      <path d="M 43.525469 470.883976 
L 530.385469 470.883976 
" clip-path="url(#p709cf9d457)" style="fill: none; stroke-dasharray: 0.8,1.32; stroke-dashoffset: 0; stroke: #e0e0e0; stroke-opacity: 0.7; stroke-width: 0.8"/>
     </g>
     <g id="line2d_24">
      <g>
       <use xlink:href="#m15e4c47bb6" x="43.525469" y="470.883976" style="stroke: #000000; stroke-width: 0.8"/>
      </g>
     </g>
     <g id="text_13">
      <text style="font-size: 11px; font-family: 'Arial', 'Helvetica', 'DejaVu Sans', sans-serif; text-anchor: end" x="36.525469" y="474.820773" transform="rotate(-0 36.525469 474.820773)">−3</text>
     </g>
    </g>
    <g id="ytick_3">
     <g id="line2d_25">
      <path d="M 43.525469 416.78842 
L 530.385469 416.78842 
" clip-path="url(#p709cf9d457)" style="fill: none; stroke-dasharray: 0.8,1.32; stroke-dashoffset: 0; stroke: #e0e0e0; stroke-opacity: 0.7; stroke-width: 0.8"/>
     </g>
     <g id="line2d_26">
      <g>
       <use xlink:href="#m15e4c47bb6" x="43.525469" y="416.78842" style="stroke: #000000; stroke-width: 0.8"/>
      </g>
     </g>
     <g id="text_14">
      <text style="font-size: 11px; font-family: 'Arial', 'Helvetica', 'DejaVu Sans', sans-serif; text-anchor: end" x="36.525469" y="420.725217" transform="rotate(-0 36.525469 420.725217)">−2</text>
     </g>
    </g>
    <g id="ytick_4">
     <g id="line2d_27">
      <path d="M 43.525469 362.692865 
L 530.385469 362.692865 
" clip-path="url(#p709cf9d457)" style="fill: none; stroke-dasharray: 0.8,1.32; stroke-dashoffset: 0; stroke: #e0e0e0; stroke-opacity: 0.7; stroke-width: 0.8"/>
     </g>
     <g id="line2d_28">
      <g>
       <use xlink:href="#m15e4c47bb6" x="43.525469" y="362.692865" style="stroke: #000000; stroke-width: 0.8"/>
      </g>
     </g>
     <g id="text_15">
      <text style="font-size: 11px; font-family: 'Arial', 'Helvetica', 'DejaVu Sans', sans-serif; text-anchor: end" x="36.525469" y="366.629661" transform="rotate(-0 36.525469 366.629661)">−1</text>
     </g>
    </g>
    <g id="ytick_5">
     <g id="line2d_29">
      <path d="M 43.525469 308.597309 
L 530.385469 308.597309 
" clip-path="url(#p709cf9d457)" style="fill: none; stroke-dasharray: 0.8,1.32; stroke-dashoffset: 0; stroke: #e0e0e0; stroke-opacity: 0.7; stroke-width: 0.8"/>
     </g>
     <g id="line2d_30">
      <g>
       <use xlink:href="#m15e4c47bb6" x="43.525469" y="308.597309" style="stroke: #000000; stroke-width: 0.8"/>
      </g>
     </g>
     <g id="text_16">
      <text style="font-size: 11px; font-family: 'Arial', 'Helvetica', 'DejaVu Sans', sans-serif; text-anchor: end" x="36.525469" y="312.534106" transform="rotate(-0 36.525469 312.534106)">0</text>
     </g>
    </g>
    <g id="ytick_6">
     <g id="line2d_31">
      <path d="M 43.525469 254.501753 
L 530.385469 254.501753 
" clip-path="url(#p709cf9d457)" style="fill: none; stroke-dasharray: 0.8,1.32; stroke-dashoffset: 0; stroke: #e0e0e0; stroke-opacity: 0.7; stroke-width: 0.8"/>
     </g>
     <g id="line2d_32">
      <g>
       <use xlink:href="#m15e4c47bb6" x="43.525469" y="254.501753" style="stroke: #000000; stroke-width: 0.8"/>
      </g>
     </g>
     <g id="text_17">
      <text style="font-size: 11px; font-family: 'Arial', 'Helvetica', 'DejaVu Sans', sans-serif; text-anchor: end" x="36.525469" y="258.43855" transform="rotate(-0 36.525469 258.43855)">1</text>
     </g>
    </g>
    <g id="ytick_7">
     <g id="line2d_33">
      <path d="M 43.525469 200.406198 
L 530.385469 200.406198 
" clip-path="url(#p709cf9d457)" style="fill: none; stroke-dasharray: 0.8,1.32; stroke-dashoffset: 0; stroke: #e0e0e0; stroke-opacity: 0.7; stroke-width: 0.8"/>
     </g>
     <g id="line2d_34">
      <g>
       <use xlink:href="#m15e4c47bb6" x="43.525469" y="200.406198" style="stroke: #000000; stroke-width: 0.8"/>
      </g>
     </g>
     <g id="text_18">
      <text style="font-size: 11px; font-family: 'Arial', 'Helvetica', 'DejaVu Sans', sans-serif; text-anchor: end" x="36.525469" y="204.342995" transform="rotate(-0 36.525469 204.342995)">2</text>
     </g>
    </g>
    <g id="ytick_8">
     <g id="line2d_35">
      <path d="M 43.525469 146.310642 
L 530.385469 146.310642 
" clip-path="url(#p709cf9d457)" style="fill: none; stroke-dasharray: 0.8,1.32; stroke-dashoffset: 0; stroke: #e0e0e0; stroke-opacity: 0.7; stroke-width: 0.8"/>
     </g>
     <g id="line2d_36">
      <g>
       <use xlink:href="#m15e4c47bb6" x="43.525469" y="146.310642" style="stroke: #000000; stroke-width: 0.8"/>
      </g>
     </g>
     <g id="text_19">
      <text style="font-size: 11px; font-family: 'Arial', 'Helvetica', 'DejaVu Sans', sans-serif; text-anchor: end" x="36.525469" y="150.247439" transform="rotate(-0 36.525469 150.247439)">3</text>
     </g>
    </g>
    <g id="ytick_9">
     <g id="line2d_37">
      <path d="M 43.525469 92.215087 
L 530.385469 92.215087 
" clip-path="url(#p709cf9d457)" style="fill: none; stroke-dasharray: 0.8,1.32; stroke-dashoffset: 0; stroke: #e0e0e0; stroke-opacity: 0.7; stroke-width: 0.8"/>
     </g>
     <g id="line2d_38">
      <g>
       <use xlink:href="#m15e4c47bb6" x="43.525469" y="92.215087" style="stroke: #000000; stroke-width: 0.8"/>
      </g>
     </g>
     <g id="text_20">
      <text style="font-size: 11px; font-family: 'Arial', 'Helvetica', 'DejaVu Sans', sans-serif; text-anchor: end" x="36.525469" y="96.151884" transform="rotate(-0 36.525469 96.151884)">4</text>
     </g>
    </g>
    <g id="ytick_10">
     <g id="line2d_39">
      <path d="M 43.525469 38.119531 
L 530.385469 38.119531 
" clip-path="url(#p709cf9d457)" style="fill: none; stroke-dasharray: 0.8,1.32; stroke-dashoffset: 0; stroke: #e0e0e0; stroke-opacity: 0.7; stroke-width: 0.8"/>
     </g>
     <g id="line2d_40">
      <g>
       <use xlink:href="#m15e4c47bb6" x="43.525469" y="38.119531" style="stroke: #000000; stroke-width: 0.8"/>
      </g>
     </g>
     <g id="text_21">
      <text style="font-size: 11px; font-family: 'Arial', 'Helvetica', 'DejaVu Sans', sans-serif; text-anchor: end" x="36.525469" y="42.056328" transform="rotate(-0 36.525469 42.056328)">5</text>
     </g>
    </g>
    <g id="text_22">
     <!-- $x_2$ -->
     <g transform="translate(17.220938 289.039531) rotate(-90)">
      <text>
       <tspan x="0" y="-0.34375" style="font-style: oblique; font-size: 14px; font-family: 'DejaVu Sans'">x</tspan>
       <tspan x="8.285156" y="1.953125" style="font-size: 9.8px; font-family: 'DejaVu Sans'">2</tspan>
      </text>
     </g>
    </g>
   </g>
   <g id="line2d_41">
    <path d="M 43.525469 308.597309 
L 530.385469 308.597309 
" clip-path="url(#p709cf9d457)" style="fill: none; stroke: #000000; stroke-opacity: 0.3; stroke-linecap: square"/>
   </g>
   <g id="line2d_42">
    <path d="M 259.907691 524.979531 
L 259.907691 38.119531 
" clip-path="url(#p709cf9d457)" style="fill: none; stroke: #000000; stroke-opacity: 0.3; stroke-linecap: square"/>
   </g>
   <g id="QuadContourSet_1">
    <path d="M 456.989489 523.076673 
L 458.258061 524.979531 
L 459.436022 524.979531 
L 461.882554 524.979531 
L 464.329087 524.979531 
L 466.77562 524.979531 
L 469.222152 524.979531 
L 471.668685 524.979531 
L 474.115217 524.979531 
L 476.56175 524.979531 
L 479.008283 524.979531 
L 481.454815 524.979531 
L 483.901348 524.979531 
L 486.347881 524.979531 
L 488.794413 524.979531 
L 491.240946 524.979531 
L 493.687479 524.979531 
L 496.134011 524.979531 
L 498.580544 524.979531 
L 501.027077 524.979531 
L 503.473609 524.979531 
L 505.920142 524.979531 
L 508.366675 524.979531 
L 510.813207 524.979531 
L 513.25974 524.979531 
L 515.706273 524.979531 
L 518.152805 524.979531 
L 520.599338 524.979531 
L 523.045871 524.979531 
L 525.492403 524.979531 
L 527.938936 524.979531 
L 530.385469 524.979531 
L 530.385469 522.532999 
L 530.385469 520.086466 
L 530.385469 517.639933 
L 530.385469 515.193401 
L 530.385469 512.746868 
L 530.385469 510.300335 
L 530.385469 507.853803 
L 530.385469 505.40727 
L 530.385469 502.960737 
L 530.385469 500.514205 
L 530.385469 498.067672 
L 530.385469 495.621139 
L 530.385469 493.174607 
L 530.385469 490.728074 
L 530.385469 488.281541 
L 530.385469 485.835009 
L 530.385469 483.388476 
L 530.385469 480.941943 
L 530.385469 478.495411 
L 530.385469 476.048878 
L 530.385469 473.602345 
L 530.385469 471.155813 
L 530.385469 468.70928 
L 530.385469 466.262747 
L 530.385469 463.816215 
L 530.385469 461.369682 
L 530.385469 458.923149 
L 530.385469 456.476617 
L 530.385469 454.030084 
L 530.385469 451.583551 
L 530.385469 449.137019 
L 530.385469 446.690486 
L 530.385469 444.243953 
L 530.385469 441.797421 
L 530.385469 439.350888 
L 530.385469 436.904355 
L 530.385469 434.457823 
L 530.385469 432.01129 
L 530.385469 429.564757 
L 530.385469 427.118225 
L 530.385469 424.671692 
L 530.385469 422.225159 
L 530.385469 419.778627 
L 530.385469 417.332094 
L 530.385469 414.885561 
L 530.385469 412.439029 
L 530.385469 409.992496 
L 530.385469 407.545963 
L 530.385469 405.099431 
L 530.385469 402.652898 
L 530.385469 400.206365 
L 530.385469 397.759833 
L 530.385469 395.3133 
L 530.385469 392.866767 
L 530.385469 390.420235 
L 530.385469 387.973702 
L 530.385469 385.527169 
L 530.385469 383.080637 
L 530.385469 380.634104 
L 530.385469 378.187571 
L 530.385469 375.741039 
L 530.385469 373.294506 
L 530.385469 370.847973 
L 530.385469 368.401441 
L 530.385469 365.954908 
L 530.385469 363.508375 
L 530.385469 361.061843 
L 530.385469 358.61531 
L 530.385469 356.168777 
L 530.385469 353.722245 
L 530.385469 351.275712 
L 530.385469 348.829179 
L 530.385469 346.382647 
L 530.385469 343.936114 
L 530.385469 341.489582 
L 530.385469 339.043049 
L 530.385469 336.596516 
L 530.385469 334.149984 
L 530.385469 331.703451 
L 530.385469 329.256918 
L 530.385469 326.810386 
L 530.385469 324.363853 
L 530.385469 321.91732 
L 530.385469 319.470788 
L 530.385469 317.024255 
L 530.385469 314.577722 
L 530.385469 312.13119 
L 530.385469 309.684657 
L 530.385469 307.238124 
L 530.385469 304.791592 
L 530.385469 302.345059 
L 530.385469 299.898526 
L 530.385469 297.451994 
L 530.385469 295.005461 
L 530.385469 292.558928 
L 530.385469 290.112396 
L 530.385469 287.665863 
L 530.385469 285.21933 
L 530.385469 282.772798 
L 530.385469 280.326265 
L 530.385469 277.879732 
L 530.385469 275.4332 
L 530.385469 272.986667 
L 530.385469 270.540134 
L 530.385469 268.093602 
L 530.385469 265.647069 
L 530.385469 263.200536 
L 530.385469 260.754004 
L 530.385469 258.307471 
L 530.385469 255.860938 
L 530.385469 253.414406 
L 530.385469 250.967873 
L 530.385469 248.52134 
L 530.385469 246.074808 
L 530.385469 243.628275 
L 530.385469 241.181742 
L 530.385469 238.73521 
L 530.385469 236.288677 
L 530.385469 233.842144 
L 530.385469 231.395612 
L 530.385469 228.949079 
L 530.385469 226.502546 
L 530.385469 224.056014 
L 530.385469 221.609481 
L 530.385469 219.162948 
L 530.385469 216.716416 
L 530.385469 214.269883 
L 530.385469 211.82335 
L 530.385469 209.376818 
L 530.385469 206.930285 
L 530.385469 204.483752 
L 530.385469 202.03722 
L 530.385469 199.590687 
L 530.385469 197.144154 
L 530.385469 194.697622 
L 530.385469 192.251089 
L 530.385469 189.804556 
L 530.385469 187.358024 
L 530.385469 184.911491 
L 530.385469 182.464958 
L 530.385469 180.018426 
L 530.385469 177.571893 
L 530.385469 175.12536 
L 530.385469 172.678828 
L 530.385469 170.232295 
L 530.385469 167.785762 
L 530.385469 165.33923 
L 530.385469 162.892697 
L 530.385469 160.446164 
L 530.385469 157.999632 
L 530.385469 155.553099 
L 530.385469 153.106566 
L 530.385469 150.660034 
L 530.385469 148.213501 
L 530.385469 145.766968 
L 530.385469 143.320436 
L 530.385469 140.873903 
L 530.385469 138.42737 
L 530.385469 135.980838 
L 530.385469 133.534305 
L 530.385469 131.087772 
L 530.385469 128.64124 
L 530.385469 126.194707 
L 530.385469 123.748174 
L 530.385469 121.301642 
L 530.385469 118.855109 
L 530.385469 116.408576 
L 530.385469 113.962044 
L 530.385469 111.515511 
L 530.385469 109.068978 
L 530.385469 106.622446 
L 530.385469 104.175913 
L 530.385469 101.72938 
L 530.385469 99.282848 
L 530.385469 96.836315 
L 530.385469 94.389783 
L 530.385469 91.94325 
L 530.385469 89.496717 
L 530.385469 87.050185 
L 530.385469 84.603652 
L 530.385469 82.157119 
L 530.385469 79.710587 
L 530.385469 77.264054 
L 530.385469 74.817521 
L 530.385469 72.370989 
L 530.385469 69.924456 
L 530.385469 67.477923 
L 530.385469 65.031391 
L 530.385469 62.584858 
L 530.385469 60.138325 
L 530.385469 57.691793 
L 530.385469 55.24526 
L 530.385469 52.798727 
L 530.385469 50.352195 
L 530.385469 47.905662 
L 530.385469 45.459129 
L 530.385469 43.012597 
L 530.385469 40.566064 
L 530.385469 38.119531 
L 527.938936 38.119531 
L 525.492403 38.119531 
L 523.045871 38.119531 
L 520.599338 38.119531 
L 518.152805 38.119531 
L 515.706273 38.119531 
L 513.25974 38.119531 
L 510.813207 38.119531 
L 508.366675 38.119531 
L 505.920142 38.119531 
L 503.473609 38.119531 
L 501.027077 38.119531 
L 498.580544 38.119531 
L 496.134011 38.119531 
L 493.687479 38.119531 
L 491.240946 38.119531 
L 488.794413 38.119531 
L 486.347881 38.119531 
L 483.901348 38.119531 
L 481.454815 38.119531 
L 479.008283 38.119531 
L 476.56175 38.119531 
L 474.115217 38.119531 
L 471.668685 38.119531 
L 469.222152 38.119531 
L 466.77562 38.119531 
L 464.329087 38.119531 
L 461.882554 38.119531 
L 459.436022 38.119531 
L 456.989489 38.119531 
L 454.542956 38.119531 
L 452.096424 38.119531 
L 449.649891 38.119531 
L 447.203358 38.119531 
L 444.756826 38.119531 
L 442.310293 38.119531 
L 439.86376 38.119531 
L 437.417228 38.119531 
L 434.970695 38.119531 
L 432.524162 38.119531 
L 430.07763 38.119531 
L 427.631097 38.119531 
L 425.184564 38.119531 
L 422.738032 38.119531 
L 420.291499 38.119531 
L 417.844966 38.119531 
L 415.398434 38.119531 
L 412.951901 38.119531 
L 410.505368 38.119531 
L 408.058836 38.119531 
L 405.612303 38.119531 
L 403.16577 38.119531 
L 400.719238 38.119531 
L 398.272705 38.119531 
L 395.826172 38.119531 
L 393.37964 38.119531 
L 390.933107 38.119531 
L 388.486574 38.119531 
L 386.040042 38.119531 
L 383.593509 38.119531 
L 381.146976 38.119531 
L 378.700444 38.119531 
L 376.253911 38.119531 
L 373.807378 38.119531 
L 371.360846 38.119531 
L 368.914313 38.119531 
L 366.46778 38.119531 
L 364.021248 38.119531 
L 361.574715 38.119531 
L 359.128182 38.119531 
L 356.68165 38.119531 
L 354.235117 38.119531 
L 351.788584 38.119531 
L 349.342052 38.119531 
L 346.895519 38.119531 
L 344.448986 38.119531 
L 342.002454 38.119531 
L 339.555921 38.119531 
L 337.109388 38.119531 
L 334.662856 38.119531 
L 332.216323 38.119531 
L 329.76979 38.119531 
L 327.323258 38.119531 
L 324.876725 38.119531 
L 322.430192 38.119531 
L 319.98366 38.119531 
L 317.537127 38.119531 
L 315.090594 38.119531 
L 312.644062 38.119531 
L 310.197529 38.119531 
L 307.750996 38.119531 
L 305.304464 38.119531 
L 302.857931 38.119531 
L 300.411398 38.119531 
L 297.964866 38.119531 
L 295.518333 38.119531 
L 293.0718 38.119531 
L 290.625268 38.119531 
L 288.178735 38.119531 
L 285.732202 38.119531 
L 283.28567 38.119531 
L 280.839137 38.119531 
L 278.392604 38.119531 
L 275.946072 38.119531 
L 273.499539 38.119531 
L 271.053006 38.119531 
L 268.606474 38.119531 
L 266.159941 38.119531 
L 263.713408 38.119531 
L 261.266876 38.119531 
L 258.820343 38.119531 
L 256.37381 38.119531 
L 253.927278 38.119531 
L 251.480745 38.119531 
L 249.034212 38.119531 
L 246.58768 38.119531 
L 244.141147 38.119531 
L 241.694614 38.119531 
L 239.248082 38.119531 
L 236.801549 38.119531 
L 234.355016 38.119531 
L 231.908484 38.119531 
L 229.461951 38.119531 
L 227.015418 38.119531 
L 224.568886 38.119531 
L 222.122353 38.119531 
L 219.675821 38.119531 
L 217.229288 38.119531 
L 214.782755 38.119531 
L 212.336223 38.119531 
L 209.88969 38.119531 
L 207.443157 38.119531 
L 204.996625 38.119531 
L 202.550092 38.119531 
L 200.103559 38.119531 
L 197.657027 38.119531 
L 195.210494 38.119531 
L 192.763961 38.119531 
L 190.317429 38.119531 
L 187.870896 38.119531 
L 185.424363 38.119531 
L 182.977831 38.119531 
L 180.531298 38.119531 
L 178.084765 38.119531 
L 175.638233 38.119531 
L 173.1917 38.119531 
L 170.745167 38.119531 
L 168.298635 38.119531 
L 165.852102 38.119531 
L 163.405569 38.119531 
L 160.959037 38.119531 
L 158.512504 38.119531 
L 156.065971 38.119531 
L 153.619439 38.119531 
L 151.172906 38.119531 
L 148.726373 38.119531 
L 146.279841 38.119531 
L 143.833308 38.119531 
L 141.386775 38.119531 
L 138.940243 38.119531 
L 136.49371 38.119531 
L 134.047177 38.119531 
L 133.684728 38.119531 
L 134.047177 38.663205 
L 135.31575 40.566064 
L 136.49371 42.333004 
L 136.946772 43.012597 
L 138.577793 45.459129 
L 138.940243 46.002803 
L 140.208815 47.905662 
L 141.386775 49.672602 
L 141.839837 50.352195 
L 143.470859 52.798727 
L 143.833308 53.342401 
L 145.10188 55.24526 
L 146.279841 57.0122 
L 146.732902 57.691793 
L 148.363924 60.138325 
L 148.726373 60.681999 
L 149.994946 62.584858 
L 151.172906 64.351798 
L 151.625968 65.031391 
L 153.256989 67.477923 
L 153.619439 68.021597 
L 154.888011 69.924456 
L 156.065971 71.691396 
L 156.519033 72.370989 
L 158.150055 74.817521 
L 158.512504 75.361195 
L 159.781076 77.264054 
L 160.959037 79.030994 
L 161.412098 79.710587 
L 163.04312 82.157119 
L 163.405569 82.700793 
L 164.674142 84.603652 
L 165.852102 86.370592 
L 166.305164 87.050185 
L 167.936185 89.496717 
L 168.298635 90.040391 
L 169.567207 91.94325 
L 170.745167 93.71019 
L 171.198229 94.389783 
L 172.829251 96.836315 
L 173.1917 97.379989 
L 174.460272 99.282848 
L 175.638233 101.049788 
L 176.091294 101.72938 
L 177.722316 104.175913 
L 178.084765 104.719587 
L 179.353338 106.622446 
L 180.531298 108.389386 
L 180.98436 109.068978 
L 182.615381 111.515511 
L 182.977831 112.059185 
L 184.246403 113.962044 
L 185.424363 115.728984 
L 185.877425 116.408576 
L 187.508447 118.855109 
L 187.870896 119.398783 
L 189.139468 121.301642 
L 190.317429 123.068582 
L 190.77049 123.748174 
L 192.401512 126.194707 
L 192.763961 126.738381 
L 194.032534 128.64124 
L 195.210494 130.40818 
L 195.663555 131.087772 
L 197.294577 133.534305 
L 197.657027 134.077979 
L 198.925599 135.980838 
L 200.103559 137.747778 
L 200.556621 138.42737 
L 202.187643 140.873903 
L 202.550092 141.417577 
L 203.818664 143.320436 
L 204.996625 145.087376 
L 205.449686 145.766968 
L 207.080708 148.213501 
L 207.443157 148.757175 
L 208.71173 150.660034 
L 209.88969 152.426974 
L 210.342751 153.106566 
L 211.973773 155.553099 
L 212.336223 156.096773 
L 213.604795 157.999632 
L 214.782755 159.766572 
L 215.235817 160.446164 
L 216.866839 162.892697 
L 217.229288 163.436371 
L 218.49786 165.33923 
L 219.675821 167.10617 
L 220.128882 167.785762 
L 221.759904 170.232295 
L 222.122353 170.775969 
L 223.390926 172.678828 
L 224.568886 174.445768 
L 225.021947 175.12536 
L 226.652969 177.571893 
L 227.015418 178.115567 
L 228.283991 180.018426 
L 229.461951 181.785366 
L 229.915013 182.464958 
L 231.546035 184.911491 
L 231.908484 185.455165 
L 233.177056 187.358024 
L 234.355016 189.124964 
L 234.808078 189.804556 
L 236.4391 192.251089 
L 236.801549 192.794763 
L 238.070122 194.697622 
L 239.248082 196.464562 
L 239.701143 197.144154 
L 241.332165 199.590687 
L 241.694614 200.134361 
L 242.963187 202.03722 
L 244.141147 203.80416 
L 244.594209 204.483752 
L 246.225231 206.930285 
L 246.58768 207.473959 
L 247.856252 209.376818 
L 249.034212 211.143758 
L 249.487274 211.82335 
L 251.118296 214.269883 
L 251.480745 214.813557 
L 252.749318 216.716416 
L 253.927278 218.483356 
L 254.380339 219.162948 
L 256.011361 221.609481 
L 256.37381 222.153155 
L 257.642383 224.056014 
L 258.820343 225.822954 
L 259.273405 226.502546 
L 260.904427 228.949079 
L 261.266876 229.492753 
L 262.535448 231.395612 
L 263.713408 233.162552 
L 264.16647 233.842144 
L 265.797492 236.288677 
L 266.159941 236.832351 
L 267.428514 238.73521 
L 268.606474 240.50215 
L 269.059535 241.181742 
L 270.690557 243.628275 
L 271.053006 244.171949 
L 272.321579 246.074808 
L 273.499539 247.841748 
L 273.952601 248.52134 
L 275.583622 250.967873 
L 275.946072 251.511547 
L 277.214644 253.414406 
L 278.392604 255.181346 
L 278.845666 255.860938 
L 280.476688 258.307471 
L 280.839137 258.851145 
L 282.10771 260.754004 
L 283.28567 262.520944 
L 283.738731 263.200536 
L 285.369753 265.647069 
L 285.732202 266.190743 
L 287.000775 268.093602 
L 288.178735 269.860542 
L 288.631797 270.540134 
L 290.262818 272.986667 
L 290.625268 273.530341 
L 291.89384 275.4332 
L 293.0718 277.20014 
L 293.524862 277.879732 
L 295.155884 280.326265 
L 295.518333 280.869939 
L 296.786906 282.772798 
L 297.964866 284.539738 
L 298.417927 285.21933 
L 300.048949 287.665863 
L 300.411398 288.209537 
L 301.679971 290.112396 
L 302.857931 291.879336 
L 303.310993 292.558928 
L 304.942014 295.005461 
L 305.304464 295.549135 
L 306.573036 297.451994 
L 307.750996 299.218934 
L 308.204058 299.898526 
L 309.83508 302.345059 
L 310.197529 302.888733 
L 311.466102 304.791592 
L 312.644062 306.558532 
L 313.097123 307.238124 
L 314.728145 309.684657 
L 315.090594 310.228331 
L 316.359167 312.13119 
L 317.537127 313.89813 
L 317.990189 314.577722 
L 319.62121 317.024255 
L 319.98366 317.567929 
L 321.252232 319.470788 
L 322.430192 321.237728 
L 322.883254 321.91732 
L 324.514276 324.363853 
L 324.876725 324.907527 
L 326.145298 326.810386 
L 327.323258 328.577326 
L 327.776319 329.256918 
L 329.407341 331.703451 
L 329.76979 332.247125 
L 331.038363 334.149984 
L 332.216323 335.916924 
L 332.669385 336.596516 
L 334.300406 339.043049 
L 334.662856 339.586723 
L 335.931428 341.489582 
L 337.109388 343.256522 
L 337.56245 343.936114 
L 339.193472 346.382647 
L 339.555921 346.926321 
L 340.824494 348.829179 
L 342.002454 350.59612 
L 342.455515 351.275712 
L 344.086537 353.722245 
L 344.448986 354.265919 
L 345.717559 356.168777 
L 346.895519 357.935718 
L 347.348581 358.61531 
L 348.979602 361.061843 
L 349.342052 361.605517 
L 350.610624 363.508375 
L 351.788584 365.275316 
L 352.241646 365.954908 
L 353.872668 368.401441 
L 354.235117 368.945115 
L 355.503689 370.847973 
L 356.68165 372.614914 
L 357.134711 373.294506 
L 358.765733 375.741039 
L 359.128182 376.284713 
L 360.396755 378.187571 
L 361.574715 379.954512 
L 362.027777 380.634104 
L 363.658798 383.080637 
L 364.021248 383.624311 
L 365.28982 385.527169 
L 366.46778 387.29411 
L 366.920842 387.973702 
L 368.551864 390.420235 
L 368.914313 390.963909 
L 370.182885 392.866767 
L 371.360846 394.633708 
L 371.813907 395.3133 
L 373.444929 397.759833 
L 373.807378 398.303507 
L 375.075951 400.206365 
L 376.253911 401.973306 
L 376.706973 402.652898 
L 378.337994 405.099431 
L 378.700444 405.643105 
L 379.969016 407.545963 
L 381.146976 409.312904 
L 381.600038 409.992496 
L 383.23106 412.439029 
L 383.593509 412.982703 
L 384.862081 414.885561 
L 386.040042 416.652502 
L 386.493103 417.332094 
L 388.124125 419.778627 
L 388.486574 420.322301 
L 389.755147 422.225159 
L 390.933107 423.9921 
L 391.386169 424.671692 
L 393.01719 427.118225 
L 393.37964 427.661899 
L 394.648212 429.564757 
L 395.826172 431.331698 
L 396.279234 432.01129 
L 397.910256 434.457823 
L 398.272705 435.001497 
L 399.541277 436.904355 
L 400.719238 438.671296 
L 401.172299 439.350888 
L 402.803321 441.797421 
L 403.16577 442.341095 
L 404.434343 444.243953 
L 405.612303 446.010894 
L 406.065365 446.690486 
L 407.696386 449.137019 
L 408.058836 449.680693 
L 409.327408 451.583551 
L 410.505368 453.350492 
L 410.95843 454.030084 
L 412.589452 456.476617 
L 412.951901 457.020291 
L 414.220473 458.923149 
L 415.398434 460.69009 
L 415.851495 461.369682 
L 417.482517 463.816215 
L 417.844966 464.359889 
L 419.113539 466.262747 
L 420.291499 468.029688 
L 420.744561 468.70928 
L 422.375582 471.155813 
L 422.738032 471.699487 
L 424.006604 473.602345 
L 425.184564 475.369286 
L 425.637626 476.048878 
L 427.268648 478.495411 
L 427.631097 479.039085 
L 428.899669 480.941943 
L 430.07763 482.708884 
L 430.530691 483.388476 
L 432.161713 485.835009 
L 432.524162 486.378683 
L 433.792735 488.281541 
L 434.970695 490.048482 
L 435.423756 490.728074 
L 437.054778 493.174607 
L 437.417228 493.718281 
L 438.6858 495.621139 
L 439.86376 497.38808 
L 440.316822 498.067672 
L 441.947844 500.514205 
L 442.310293 501.057879 
L 443.578865 502.960737 
L 444.756826 504.727678 
L 445.209887 505.40727 
L 446.840909 507.853803 
L 447.203358 508.397477 
L 448.471931 510.300335 
L 449.649891 512.067276 
L 450.102952 512.746868 
L 451.733974 515.193401 
L 452.096424 515.737075 
L 453.364996 517.639933 
L 454.542956 519.406874 
L 454.996018 520.086466 
L 456.62704 522.532999 
z
" clip-path="url(#p709cf9d457)" style="fill: #e3f2fd; fill-opacity: 0.4"/>
   </g>
   <g id="QuadContourSet_2">
    <path d="M 45.972001 524.979531 
L 48.418534 524.979531 
L 50.865067 524.979531 
L 53.311599 524.979531 
L 55.758132 524.979531 
L 58.204665 524.979531 
L 60.651197 524.979531 
L 63.09773 524.979531 
L 65.544263 524.979531 
L 67.990795 524.979531 
L 70.437328 524.979531 
L 72.883861 524.979531 
L 75.330393 524.979531 
L 77.776926 524.979531 
L 80.223459 524.979531 
L 82.669991 524.979531 
L 85.116524 524.979531 
L 87.563057 524.979531 
L 90.009589 524.979531 
L 92.456122 524.979531 
L 94.902655 524.979531 
L 97.349187 524.979531 
L 99.79572 524.979531 
L 102.242253 524.979531 
L 104.688785 524.979531 
L 107.135318 524.979531 
L 109.581851 524.979531 
L 112.028383 524.979531 
L 114.474916 524.979531 
L 116.921449 524.979531 
L 119.367981 524.979531 
L 121.814514 524.979531 
L 124.261047 524.979531 
L 126.707579 524.979531 
L 129.154112 524.979531 
L 131.600645 524.979531 
L 134.047177 524.979531 
L 136.49371 524.979531 
L 138.940243 524.979531 
L 141.386775 524.979531 
L 143.833308 524.979531 
L 146.279841 524.979531 
L 148.726373 524.979531 
L 151.172906 524.979531 
L 153.619439 524.979531 
L 156.065971 524.979531 
L 158.512504 524.979531 
L 160.959037 524.979531 
L 163.405569 524.979531 
L 165.852102 524.979531 
L 168.298635 524.979531 
L 170.745167 524.979531 
L 173.1917 524.979531 
L 175.638233 524.979531 
L 178.084765 524.979531 
L 180.531298 524.979531 
L 182.977831 524.979531 
L 185.424363 524.979531 
L 187.870896 524.979531 
L 190.317429 524.979531 
L 192.763961 524.979531 
L 195.210494 524.979531 
L 197.657027 524.979531 
L 200.103559 524.979531 
L 202.550092 524.979531 
L 204.996625 524.979531 
L 207.443157 524.979531 
L 209.88969 524.979531 
L 212.336223 524.979531 
L 214.782755 524.979531 
L 217.229288 524.979531 
L 219.675821 524.979531 
L 222.122353 524.979531 
L 224.568886 524.979531 
L 227.015418 524.979531 
L 229.461951 524.979531 
L 231.908484 524.979531 
L 234.355016 524.979531 
L 236.801549 524.979531 
L 239.248082 524.979531 
L 241.694614 524.979531 
L 244.141147 524.979531 
L 246.58768 524.979531 
L 249.034212 524.979531 
L 251.480745 524.979531 
L 253.927278 524.979531 
L 256.37381 524.979531 
L 258.820343 524.979531 
L 261.266876 524.979531 
L 263.713408 524.979531 
L 266.159941 524.979531 
L 268.606474 524.979531 
L 271.053006 524.979531 
L 273.499539 524.979531 
L 275.946072 524.979531 
L 278.392604 524.979531 
L 280.839137 524.979531 
L 283.28567 524.979531 
L 285.732202 524.979531 
L 288.178735 524.979531 
L 290.625268 524.979531 
L 293.0718 524.979531 
L 295.518333 524.979531 
L 297.964866 524.979531 
L 300.411398 524.979531 
L 302.857931 524.979531 
L 305.304464 524.979531 
L 307.750996 524.979531 
L 310.197529 524.979531 
L 312.644062 524.979531 
L 315.090594 524.979531 
L 317.537127 524.979531 
L 319.98366 524.979531 
L 322.430192 524.979531 
L 324.876725 524.979531 
L 327.323258 524.979531 
L 329.76979 524.979531 
L 332.216323 524.979531 
L 334.662856 524.979531 
L 337.109388 524.979531 
L 339.555921 524.979531 
L 342.002454 524.979531 
L 344.448986 524.979531 
L 346.895519 524.979531 
L 349.342052 524.979531 
L 351.788584 524.979531 
L 354.235117 524.979531 
L 356.68165 524.979531 
L 359.128182 524.979531 
L 361.574715 524.979531 
L 364.021248 524.979531 
L 366.46778 524.979531 
L 368.914313 524.979531 
L 371.360846 524.979531 
L 373.807378 524.979531 
L 376.253911 524.979531 
L 378.700444 524.979531 
L 381.146976 524.979531 
L 383.593509 524.979531 
L 386.040042 524.979531 
L 388.486574 524.979531 
L 390.933107 524.979531 
L 393.37964 524.979531 
L 395.826172 524.979531 
L 398.272705 524.979531 
L 400.719238 524.979531 
L 403.16577 524.979531 
L 405.612303 524.979531 
L 408.058836 524.979531 
L 410.505368 524.979531 
L 412.951901 524.979531 
L 415.398434 524.979531 
L 417.844966 524.979531 
L 420.291499 524.979531 
L 422.738032 524.979531 
L 425.184564 524.979531 
L 427.631097 524.979531 
L 430.07763 524.979531 
L 432.524162 524.979531 
L 434.970695 524.979531 
L 437.417228 524.979531 
L 439.86376 524.979531 
L 442.310293 524.979531 
L 444.756826 524.979531 
L 447.203358 524.979531 
L 449.649891 524.979531 
L 452.096424 524.979531 
L 454.542956 524.979531 
L 456.989489 524.979531 
L 458.258061 524.979531 
L 456.989489 523.076673 
L 456.62704 522.532999 
L 454.996018 520.086466 
L 454.542956 519.406874 
L 453.364996 517.639933 
L 452.096424 515.737075 
L 451.733974 515.193401 
L 450.102952 512.746868 
L 449.649891 512.067276 
L 448.471931 510.300335 
L 447.203358 508.397477 
L 446.840909 507.853803 
L 445.209887 505.40727 
L 444.756826 504.727678 
L 443.578865 502.960737 
L 442.310293 501.057879 
L 441.947844 500.514205 
L 440.316822 498.067672 
L 439.86376 497.38808 
L 438.6858 495.621139 
L 437.417228 493.718281 
L 437.054778 493.174607 
L 435.423756 490.728074 
L 434.970695 490.048482 
L 433.792735 488.281541 
L 432.524162 486.378683 
L 432.161713 485.835009 
L 430.530691 483.388476 
L 430.07763 482.708884 
L 428.899669 480.941943 
L 427.631097 479.039085 
L 427.268648 478.495411 
L 425.637626 476.048878 
L 425.184564 475.369286 
L 424.006604 473.602345 
L 422.738032 471.699487 
L 422.375582 471.155813 
L 420.744561 468.70928 
L 420.291499 468.029688 
L 419.113539 466.262747 
L 417.844966 464.359889 
L 417.482517 463.816215 
L 415.851495 461.369682 
L 415.398434 460.69009 
L 414.220473 458.923149 
L 412.951901 457.020291 
L 412.589452 456.476617 
L 410.95843 454.030084 
L 410.505368 453.350492 
L 409.327408 451.583551 
L 408.058836 449.680693 
L 407.696386 449.137019 
L 406.065365 446.690486 
L 405.612303 446.010894 
L 404.434343 444.243953 
L 403.16577 442.341095 
L 402.803321 441.797421 
L 401.172299 439.350888 
L 400.719238 438.671296 
L 399.541277 436.904355 
L 398.272705 435.001497 
L 397.910256 434.457823 
L 396.279234 432.01129 
L 395.826172 431.331698 
L 394.648212 429.564757 
L 393.37964 427.661899 
L 393.01719 427.118225 
L 391.386169 424.671692 
L 390.933107 423.9921 
L 389.755147 422.225159 
L 388.486574 420.322301 
L 388.124125 419.778627 
L 386.493103 417.332094 
L 386.040042 416.652502 
L 384.862081 414.885561 
L 383.593509 412.982703 
L 383.23106 412.439029 
L 381.600038 409.992496 
L 381.146976 409.312904 
L 379.969016 407.545963 
L 378.700444 405.643105 
L 378.337994 405.099431 
L 376.706973 402.652898 
L 376.253911 401.973306 
L 375.075951 400.206365 
L 373.807378 398.303507 
L 373.444929 397.759833 
L 371.813907 395.3133 
L 371.360846 394.633708 
L 370.182885 392.866767 
L 368.914313 390.963909 
L 368.551864 390.420235 
L 366.920842 387.973702 
L 366.46778 387.29411 
L 365.28982 385.527169 
L 364.021248 383.624311 
L 363.658798 383.080637 
L 362.027777 380.634104 
L 361.574715 379.954512 
L 360.396755 378.187571 
L 359.128182 376.284713 
L 358.765733 375.741039 
L 357.134711 373.294506 
L 356.68165 372.614914 
L 355.503689 370.847973 
L 354.235117 368.945115 
L 353.872668 368.401441 
L 352.241646 365.954908 
L 351.788584 365.275316 
L 350.610624 363.508375 
L 349.342052 361.605517 
L 348.979602 361.061843 
L 347.348581 358.61531 
L 346.895519 357.935718 
L 345.717559 356.168777 
L 344.448986 354.265919 
L 344.086537 353.722245 
L 342.455515 351.275712 
L 342.002454 350.59612 
L 340.824494 348.829179 
L 339.555921 346.926321 
L 339.193472 346.382647 
L 337.56245 343.936114 
L 337.109388 343.256522 
L 335.931428 341.489582 
L 334.662856 339.586723 
L 334.300406 339.043049 
L 332.669385 336.596516 
L 332.216323 335.916924 
L 331.038363 334.149984 
L 329.76979 332.247125 
L 329.407341 331.703451 
L 327.776319 329.256918 
L 327.323258 328.577326 
L 326.145298 326.810386 
L 324.876725 324.907527 
L 324.514276 324.363853 
L 322.883254 321.91732 
L 322.430192 321.237728 
L 321.252232 319.470788 
L 319.98366 317.567929 
L 319.62121 317.024255 
L 317.990189 314.577722 
L 317.537127 313.89813 
L 316.359167 312.13119 
L 315.090594 310.228331 
L 314.728145 309.684657 
L 313.097123 307.238124 
L 312.644062 306.558532 
L 311.466102 304.791592 
L 310.197529 302.888733 
L 309.83508 302.345059 
L 308.204058 299.898526 
L 307.750996 299.218934 
L 306.573036 297.451994 
L 305.304464 295.549135 
L 304.942014 295.005461 
L 303.310993 292.558928 
L 302.857931 291.879336 
L 301.679971 290.112396 
L 300.411398 288.209537 
L 300.048949 287.665863 
L 298.417927 285.21933 
L 297.964866 284.539738 
L 296.786906 282.772798 
L 295.518333 280.869939 
L 295.155884 280.326265 
L 293.524862 277.879732 
L 293.0718 277.20014 
L 291.89384 275.4332 
L 290.625268 273.530341 
L 290.262818 272.986667 
L 288.631797 270.540134 
L 288.178735 269.860542 
L 287.000775 268.093602 
L 285.732202 266.190743 
L 285.369753 265.647069 
L 283.738731 263.200536 
L 283.28567 262.520944 
L 282.10771 260.754004 
L 280.839137 258.851145 
L 280.476688 258.307471 
L 278.845666 255.860938 
L 278.392604 255.181346 
L 277.214644 253.414406 
L 275.946072 251.511547 
L 275.583622 250.967873 
L 273.952601 248.52134 
L 273.499539 247.841748 
L 272.321579 246.074808 
L 271.053006 244.171949 
L 270.690557 243.628275 
L 269.059535 241.181742 
L 268.606474 240.50215 
L 267.428514 238.73521 
L 266.159941 236.832351 
L 265.797492 236.288677 
L 264.16647 233.842144 
L 263.713408 233.162552 
L 262.535448 231.395612 
L 261.266876 229.492753 
L 260.904427 228.949079 
L 259.273405 226.502546 
L 258.820343 225.822954 
L 257.642383 224.056014 
L 256.37381 222.153155 
L 256.011361 221.609481 
L 254.380339 219.162948 
L 253.927278 218.483356 
L 252.749318 216.716416 
L 251.480745 214.813557 
L 251.118296 214.269883 
L 249.487274 211.82335 
L 249.034212 211.143758 
L 247.856252 209.376818 
L 246.58768 207.473959 
L 246.225231 206.930285 
L 244.594209 204.483752 
L 244.141147 203.80416 
L 242.963187 202.03722 
L 241.694614 200.134361 
L 241.332165 199.590687 
L 239.701143 197.144154 
L 239.248082 196.464562 
L 238.070122 194.697622 
L 236.801549 192.794763 
L 236.4391 192.251089 
L 234.808078 189.804556 
L 234.355016 189.124964 
L 233.177056 187.358024 
L 231.908484 185.455165 
L 231.546035 184.911491 
L 229.915013 182.464958 
L 229.461951 181.785366 
L 228.283991 180.018426 
L 227.015418 178.115567 
L 226.652969 177.571893 
L 225.021947 175.12536 
L 224.568886 174.445768 
L 223.390926 172.678828 
L 222.122353 170.775969 
L 221.759904 170.232295 
L 220.128882 167.785762 
L 219.675821 167.10617 
L 218.49786 165.33923 
L 217.229288 163.436371 
L 216.866839 162.892697 
L 215.235817 160.446164 
L 214.782755 159.766572 
L 213.604795 157.999632 
L 212.336223 156.096773 
L 211.973773 155.553099 
L 210.342751 153.106566 
L 209.88969 152.426974 
L 208.71173 150.660034 
L 207.443157 148.757175 
L 207.080708 148.213501 
L 205.449686 145.766968 
L 204.996625 145.087376 
L 203.818664 143.320436 
L 202.550092 141.417577 
L 202.187643 140.873903 
L 200.556621 138.42737 
L 200.103559 137.747778 
L 198.925599 135.980838 
L 197.657027 134.077979 
L 197.294577 133.534305 
L 195.663555 131.087772 
L 195.210494 130.40818 
L 194.032534 128.64124 
L 192.763961 126.738381 
L 192.401512 126.194707 
L 190.77049 123.748174 
L 190.317429 123.068582 
L 189.139468 121.301642 
L 187.870896 119.398783 
L 187.508447 118.855109 
L 185.877425 116.408576 
L 185.424363 115.728984 
L 184.246403 113.962044 
L 182.977831 112.059185 
L 182.615381 111.515511 
L 180.98436 109.068978 
L 180.531298 108.389386 
L 179.353338 106.622446 
L 178.084765 104.719587 
L 177.722316 104.175913 
L 176.091294 101.72938 
L 175.638233 101.049788 
L 174.460272 99.282848 
L 173.1917 97.379989 
L 172.829251 96.836315 
L 171.198229 94.389783 
L 170.745167 93.71019 
L 169.567207 91.94325 
L 168.298635 90.040391 
L 167.936185 89.496717 
L 166.305164 87.050185 
L 165.852102 86.370592 
L 164.674142 84.603652 
L 163.405569 82.700793 
L 163.04312 82.157119 
L 161.412098 79.710587 
L 160.959037 79.030994 
L 159.781076 77.264054 
L 158.512504 75.361195 
L 158.150055 74.817521 
L 156.519033 72.370989 
L 156.065971 71.691396 
L 154.888011 69.924456 
L 153.619439 68.021597 
L 153.256989 67.477923 
L 151.625968 65.031391 
L 151.172906 64.351798 
L 149.994946 62.584858 
L 148.726373 60.681999 
L 148.363924 60.138325 
L 146.732902 57.691793 
L 146.279841 57.0122 
L 145.10188 55.24526 
L 143.833308 53.342401 
L 143.470859 52.798727 
L 141.839837 50.352195 
L 141.386775 49.672602 
L 140.208815 47.905662 
L 138.940243 46.002803 
L 138.577793 45.459129 
L 136.946772 43.012597 
L 136.49371 42.333004 
L 135.31575 40.566064 
L 134.047177 38.663205 
L 133.684728 38.119531 
L 131.600645 38.119531 
L 129.154112 38.119531 
L 126.707579 38.119531 
L 124.261047 38.119531 
L 121.814514 38.119531 
L 119.367981 38.119531 
L 116.921449 38.119531 
L 114.474916 38.119531 
L 112.028383 38.119531 
L 109.581851 38.119531 
L 107.135318 38.119531 
L 104.688785 38.119531 
L 102.242253 38.119531 
L 99.79572 38.119531 
L 97.349187 38.119531 
L 94.902655 38.119531 
L 92.456122 38.119531 
L 90.009589 38.119531 
L 87.563057 38.119531 
L 85.116524 38.119531 
L 82.669991 38.119531 
L 80.223459 38.119531 
L 77.776926 38.119531 
L 75.330393 38.119531 
L 72.883861 38.119531 
L 70.437328 38.119531 
L 67.990795 38.119531 
L 65.544263 38.119531 
L 63.09773 38.119531 
L 60.651197 38.119531 
L 58.204665 38.119531 
L 55.758132 38.119531 
L 53.311599 38.119531 
L 50.865067 38.119531 
L 48.418534 38.119531 
L 45.972001 38.119531 
L 43.525469 38.119531 
L 43.525469 40.566064 
L 43.525469 43.012597 
L 43.525469 45.459129 
L 43.525469 47.905662 
L 43.525469 50.352195 
L 43.525469 52.798727 
L 43.525469 55.24526 
L 43.525469 57.691793 
L 43.525469 60.138325 
L 43.525469 62.584858 
L 43.525469 65.031391 
L 43.525469 67.477923 
L 43.525469 69.924456 
L 43.525469 72.370989 
L 43.525469 74.817521 
L 43.525469 77.264054 
L 43.525469 79.710587 
L 43.525469 82.157119 
L 43.525469 84.603652 
L 43.525469 87.050185 
L 43.525469 89.496717 
L 43.525469 91.94325 
L 43.525469 94.389783 
L 43.525469 96.836315 
L 43.525469 99.282848 
L 43.525469 101.72938 
L 43.525469 104.175913 
L 43.525469 106.622446 
L 43.525469 109.068978 
L 43.525469 111.515511 
L 43.525469 113.962044 
L 43.525469 116.408576 
L 43.525469 118.855109 
L 43.525469 121.301642 
L 43.525469 123.748174 
L 43.525469 126.194707 
L 43.525469 128.64124 
L 43.525469 131.087772 
L 43.525469 133.534305 
L 43.525469 135.980838 
L 43.525469 138.42737 
L 43.525469 140.873903 
L 43.525469 143.320436 
L 43.525469 145.766968 
L 43.525469 148.213501 
L 43.525469 150.660034 
L 43.525469 153.106566 
L 43.525469 155.553099 
L 43.525469 157.999632 
L 43.525469 160.446164 
L 43.525469 162.892697 
L 43.525469 165.33923 
L 43.525469 167.785762 
L 43.525469 170.232295 
L 43.525469 172.678828 
L 43.525469 175.12536 
L 43.525469 177.571893 
L 43.525469 180.018426 
L 43.525469 182.464958 
L 43.525469 184.911491 
L 43.525469 187.358024 
L 43.525469 189.804556 
L 43.525469 192.251089 
L 43.525469 194.697622 
L 43.525469 197.144154 
L 43.525469 199.590687 
L 43.525469 202.03722 
L 43.525469 204.483752 
L 43.525469 206.930285 
L 43.525469 209.376818 
L 43.525469 211.82335 
L 43.525469 214.269883 
L 43.525469 216.716416 
L 43.525469 219.162948 
L 43.525469 221.609481 
L 43.525469 224.056014 
L 43.525469 226.502546 
L 43.525469 228.949079 
L 43.525469 231.395612 
L 43.525469 233.842144 
L 43.525469 236.288677 
L 43.525469 238.73521 
L 43.525469 241.181742 
L 43.525469 243.628275 
L 43.525469 246.074808 
L 43.525469 248.52134 
L 43.525469 250.967873 
L 43.525469 253.414406 
L 43.525469 255.860938 
L 43.525469 258.307471 
L 43.525469 260.754004 
L 43.525469 263.200536 
L 43.525469 265.647069 
L 43.525469 268.093602 
L 43.525469 270.540134 
L 43.525469 272.986667 
L 43.525469 275.4332 
L 43.525469 277.879732 
L 43.525469 280.326265 
L 43.525469 282.772798 
L 43.525469 285.21933 
L 43.525469 287.665863 
L 43.525469 290.112396 
L 43.525469 292.558928 
L 43.525469 295.005461 
L 43.525469 297.451994 
L 43.525469 299.898526 
L 43.525469 302.345059 
L 43.525469 304.791592 
L 43.525469 307.238124 
L 43.525469 309.684657 
L 43.525469 312.13119 
L 43.525469 314.577722 
L 43.525469 317.024255 
L 43.525469 319.470788 
L 43.525469 321.91732 
L 43.525469 324.363853 
L 43.525469 326.810386 
L 43.525469 329.256918 
L 43.525469 331.703451 
L 43.525469 334.149984 
L 43.525469 336.596516 
L 43.525469 339.043049 
L 43.525469 341.489582 
L 43.525469 343.936114 
L 43.525469 346.382647 
L 43.525469 348.829179 
L 43.525469 351.275712 
L 43.525469 353.722245 
L 43.525469 356.168777 
L 43.525469 358.61531 
L 43.525469 361.061843 
L 43.525469 363.508375 
L 43.525469 365.954908 
L 43.525469 368.401441 
L 43.525469 370.847973 
L 43.525469 373.294506 
L 43.525469 375.741039 
L 43.525469 378.187571 
L 43.525469 380.634104 
L 43.525469 383.080637 
L 43.525469 385.527169 
L 43.525469 387.973702 
L 43.525469 390.420235 
L 43.525469 392.866767 
L 43.525469 395.3133 
L 43.525469 397.759833 
L 43.525469 400.206365 
L 43.525469 402.652898 
L 43.525469 405.099431 
L 43.525469 407.545963 
L 43.525469 409.992496 
L 43.525469 412.439029 
L 43.525469 414.885561 
L 43.525469 417.332094 
L 43.525469 419.778627 
L 43.525469 422.225159 
L 43.525469 424.671692 
L 43.525469 427.118225 
L 43.525469 429.564757 
L 43.525469 432.01129 
L 43.525469 434.457823 
L 43.525469 436.904355 
L 43.525469 439.350888 
L 43.525469 441.797421 
L 43.525469 444.243953 
L 43.525469 446.690486 
L 43.525469 449.137019 
L 43.525469 451.583551 
L 43.525469 454.030084 
L 43.525469 456.476617 
L 43.525469 458.923149 
L 43.525469 461.369682 
L 43.525469 463.816215 
L 43.525469 466.262747 
L 43.525469 468.70928 
L 43.525469 471.155813 
L 43.525469 473.602345 
L 43.525469 476.048878 
L 43.525469 478.495411 
L 43.525469 480.941943 
L 43.525469 483.388476 
L 43.525469 485.835009 
L 43.525469 488.281541 
L 43.525469 490.728074 
L 43.525469 493.174607 
L 43.525469 495.621139 
L 43.525469 498.067672 
L 43.525469 500.514205 
L 43.525469 502.960737 
L 43.525469 505.40727 
L 43.525469 507.853803 
L 43.525469 510.300335 
L 43.525469 512.746868 
L 43.525469 515.193401 
L 43.525469 517.639933 
L 43.525469 520.086466 
L 43.525469 522.532999 
L 43.525469 524.979531 
z
" clip-path="url(#p709cf9d457)" style="fill: #ffebee; fill-opacity: 0.4"/>
   </g>
   <g id="line2d_43">
    <path d="M 259.907691 308.597309 
L 297.35846 283.63013 
" clip-path="url(#p709cf9d457)" style="fill: none; stroke-dasharray: 5.55,2.4; stroke-dashoffset: 0; stroke: #000000; stroke-opacity: 0.6; stroke-width: 1.5"/>
   </g>
   <g id="patch_3">
    <path d="M 43.525469 524.979531 
L 43.525469 38.119531 
" style="fill: none; stroke: #000000; stroke-width: 1.2; stroke-linejoin: miter; stroke-linecap: square"/>
   </g>
   <g id="patch_4">
    <path d="M 530.385469 524.979531 
L 530.385469 38.119531 
" style="fill: none; stroke: #000000; stroke-width: 1.2; stroke-linejoin: miter; stroke-linecap: square"/>
   </g>
   <g id="patch_5">
    <path d="M 43.525469 524.979531 
L 530.385469 524.979531 
" style="fill: none; stroke: #000000; stroke-width: 1.2; stroke-linejoin: miter; stroke-linecap: square"/>
   </g>
   <g id="patch_6">
    <path d="M 43.525469 38.119531 
L 530.385469 38.119531 
" style="fill: none; stroke: #000000; stroke-width: 1.2; stroke-linejoin: miter; stroke-linecap: square"/>
   </g>
   <g id="line2d_44">
    <path d="M 107.605041 -1 
L 486.287124 567.023125 
" clip-path="url(#p709cf9d457)" style="fill: none; stroke: #1976d2; stroke-width: 3.5; stroke-linecap: square"/>
   </g>
   <g id="text_23">
    <text style="font-weight: 700; font-size: 15px; font-family: 'Arial', 'Helvetica', 'DejaVu Sans', sans-serif; text-anchor: middle" x="286.955469" y="18.119531" transform="rotate(-0 286.955469 18.119531)">Perceptron Geometry: Hyperplane &amp; Decision Boundary</text>
   </g>
   <g id="PathCollection_1">
    <defs>
     <path id="m698bb56d85" d="M 0 5.477226 
C 1.452577 5.477226 2.845856 4.900111 3.872983 3.872983 
C 4.900111 2.845856 5.477226 1.452577 5.477226 0 
C 5.477226 -1.452577 4.900111 -2.845856 3.872983 -3.872983 
C 2.845856 -4.900111 1.452577 -5.477226 0 -5.477226 
C -1.452577 -5.477226 -2.845856 -4.900111 -3.872983 -3.872983 
C -4.900111 -2.845856 -5.477226 -1.452577 -5.477226 0 
C -5.477226 1.452577 -4.900111 2.845856 -3.872983 3.872983 
C -2.845856 4.900111 -1.452577 5.477226 0 5.477226 
z
" style="stroke: #1976d2; stroke-opacity: 0.9; stroke-width: 2.5"/>
    </defs>
    <g clip-path="url(#p709cf9d457)">
     <use xlink:href="#m698bb56d85" x="225.874071" y="62.114764" style="fill: #ffffff; fill-opacity: 0.9; stroke: #1976d2; stroke-opacity: 0.9; stroke-width: 2.5"/>
     <use xlink:href="#m698bb56d85" x="399.904039" y="233.516662" style="fill: #ffffff; fill-opacity: 0.9; stroke: #1976d2; stroke-opacity: 0.9; stroke-width: 2.5"/>
     <use xlink:href="#m698bb56d85" x="336.184323" y="180.247316" style="fill: #ffffff; fill-opacity: 0.9; stroke: #1976d2; stroke-opacity: 0.9; stroke-width: 2.5"/>
     <use xlink:href="#m698bb56d85" x="448.808493" y="421.600112" style="fill: #ffffff; fill-opacity: 0.9; stroke: #1976d2; stroke-opacity: 0.9; stroke-width: 2.5"/>
     <use xlink:href="#m698bb56d85" x="265.567701" y="142.708763" style="fill: #ffffff; fill-opacity: 0.9; stroke: #1976d2; stroke-opacity: 0.9; stroke-width: 2.5"/>
    </g>
   </g>
   <g id="PathCollection_2">
    <defs>
     <path id="mddaf429aa8" d="M -5.477226 5.477226 
L 5.477226 -5.477226 
M -5.477226 -5.477226 
L 5.477226 5.477226 
" style="stroke: #d32f2f; stroke-opacity: 0.9; stroke-width: 2.5"/>
    </defs>
    <g clip-path="url(#p709cf9d457)">
     <use xlink:href="#mddaf429aa8" x="339.314755" y="441.958156" style="fill: #d32f2f; fill-opacity: 0.9; stroke: #d32f2f; stroke-opacity: 0.9; stroke-width: 2.5"/>
     <use xlink:href="#mddaf429aa8" x="75.196487" y="63.005119" style="fill: #d32f2f; fill-opacity: 0.9; stroke: #d32f2f; stroke-opacity: 0.9; stroke-width: 2.5"/>
     <use xlink:href="#mddaf429aa8" x="191.829728" y="477.426886" style="fill: #d32f2f; fill-opacity: 0.9; stroke: #d32f2f; stroke-opacity: 0.9; stroke-width: 2.5"/>
     <use xlink:href="#mddaf429aa8" x="102.941004" y="283.897701" style="fill: #d32f2f; fill-opacity: 0.9; stroke: #d32f2f; stroke-opacity: 0.9; stroke-width: 2.5"/>
     <use xlink:href="#mddaf429aa8" x="60.267864" y="82.2678" style="fill: #d32f2f; fill-opacity: 0.9; stroke: #d32f2f; stroke-opacity: 0.9; stroke-width: 2.5"/>
     <use xlink:href="#mddaf429aa8" x="169.515091" y="202.423932" style="fill: #d32f2f; fill-opacity: 0.9; stroke: #d32f2f; stroke-opacity: 0.9; stroke-width: 2.5"/>
     <use xlink:href="#mddaf429aa8" x="195.285123" y="271.779214" style="fill: #d32f2f; fill-opacity: 0.9; stroke: #d32f2f; stroke-opacity: 0.9; stroke-width: 2.5"/>
     <use xlink:href="#mddaf429aa8" x="309.696835" y="434.981291" style="fill: #d32f2f; fill-opacity: 0.9; stroke: #d32f2f; stroke-opacity: 0.9; stroke-width: 2.5"/>
     <use xlink:href="#mddaf429aa8" x="86.608928" y="429.563315" style="fill: #d32f2f; fill-opacity: 0.9; stroke: #d32f2f; stroke-opacity: 0.9; stroke-width: 2.5"/>
     <use xlink:href="#mddaf429aa8" x="65.544827" y="366.589206" style="fill: #d32f2f; fill-opacity: 0.9; stroke: #d32f2f; stroke-opacity: 0.9; stroke-width: 2.5"/>
    </g>
   </g>
   <g id="patch_7">
    <path d="M 261.573185 307.48698 
Q 316.172646 271.087339 368.522107 236.187699 
" clip-path="url(#p709cf9d457)" style="fill: none; stroke: #d32f2f; stroke-width: 3; stroke-linecap: round"/>
    <path d="M 354.099901 236.187699 
L 368.522107 236.187699 
L 362.975105 249.500503 
" clip-path="url(#p709cf9d457)" style="fill: none; stroke: #d32f2f; stroke-width: 3; stroke-linecap: round"/>
   </g>
   <g id="legend_1">
    <g id="patch_8">
     <path d="M 53.225469 98.385156 
L 248.915469 98.385156 
Q 251.115469 98.385156 251.115469 96.185156 
L 251.115469 47.819531 
Q 251.115469 45.619531 248.915469 45.619531 
L 53.225469 45.619531 
Q 51.025469 45.619531 51.025469 47.819531 
L 51.025469 96.185156 
Q 51.025469 98.385156 53.225469 98.385156 
z
" style="fill: #4d4d4d; opacity: 0.5; stroke: #4d4d4d; stroke-linejoin: miter"/>
    </g>
    <g id="patch_9">
     <path d="M 51.225469 96.385156 
L 246.915469 96.385156 
Q 249.115469 96.385156 249.115469 94.185156 
L 249.115469 45.819531 
Q 249.115469 43.619531 246.915469 43.619531 
L 51.225469 43.619531 
Q 49.025469 43.619531 49.025469 45.819531 
L 49.025469 94.185156 
Q 49.025469 96.385156 51.225469 96.385156 
z
" style="fill: #ffffff; opacity: 0.95; stroke: #000000; stroke-linejoin: miter"/>
    </g>
    <g id="line2d_45">
     <path d="M 53.425469 54.069531 
L 64.425469 54.069531 
L 75.425469 54.069531 
" style="fill: none; stroke: #1976d2; stroke-width: 3.5; stroke-linecap: square"/>
    </g>
    <g id="text_24">
     <!-- Decision Boundary: $w^Tx + b = 0$ -->
     <g transform="translate(84.225469 57.919531)">
      <text>
       <tspan x="0" y="-0.178125" style="font-size: 11px; font-family: 'Arial'">D</tspan>
       <tspan x="7.943848" y="-0.178125" style="font-size: 11px; font-family: 'Arial'">e</tspan>
       <tspan x="14.061523" y="-0.178125" style="font-size: 11px; font-family: 'Arial'">c</tspan>
       <tspan x="19.561523" y="-0.178125" style="font-size: 11px; font-family: 'Arial'">i</tspan>
       <tspan x="22.005371" y="-0.178125" style="font-size: 11px; font-family: 'Arial'">s</tspan>
       <tspan x="27.505371" y="-0.178125" style="font-size: 11px; font-family: 'Arial'">i</tspan>
       <tspan x="29.949219" y="-0.178125" style="font-size: 11px; font-family: 'Arial'">o</tspan>
       <tspan x="36.066895" y="-0.178125" style="font-size: 11px; font-family: 'Arial'">n</tspan>
       <tspan x="42.18457" y="-0.178125" style="font-size: 11px; font-family: 'Arial'"> </tspan>
       <tspan x="45.240723" y="-0.178125" style="font-size: 11px; font-family: 'Arial'">B</tspan>
       <tspan x="52.577637" y="-0.178125" style="font-size: 11px; font-family: 'Arial'">o</tspan>
       <tspan x="58.695312" y="-0.178125" style="font-size: 11px; font-family: 'Arial'">u</tspan>
       <tspan x="64.812988" y="-0.178125" style="font-size: 11px; font-family: 'Arial'">n</tspan>
       <tspan x="70.930664" y="-0.178125" style="font-size: 11px; font-family: 'Arial'">d</tspan>
       <tspan x="77.04834" y="-0.178125" style="font-size: 11px; font-family: 'Arial'">a</tspan>
       <tspan x="83.166016" y="-0.178125" style="font-size: 11px; font-family: 'Arial'">r</tspan>
       <tspan x="86.829102" y="-0.178125" style="font-size: 11px; font-family: 'Arial'">y</tspan>
       <tspan x="92.329102" y="-0.178125" style="font-size: 11px; font-family: 'Arial'">:</tspan>
       <tspan x="95.385254" y="-0.178125" style="font-size: 11px; font-family: 'Arial'"> </tspan>
       <tspan x="98.441406" y="-0.178125" style="font-style: oblique; font-size: 11px; font-family: 'DejaVu Sans'">w</tspan>
       <tspan x="112.933512" y="-0.178125" style="font-style: oblique; font-size: 11px; font-family: 'DejaVu Sans'">x</tspan>
       <tspan x="132.946208" y="-0.178125" style="font-style: oblique; font-size: 11px; font-family: 'DejaVu Sans'">b</tspan>
       <tspan x="107.929264" y="-4.389063" style="font-style: oblique; font-size: 7.7px; font-family: 'DejaVu Sans'">T</tspan>
       <tspan x="121.586344" y="-0.178125" style="font-size: 11px; font-family: 'DejaVu Sans'">+</tspan>
       <tspan x="142.071696" y="-0.178125" style="font-size: 11px; font-family: 'DejaVu Sans'">=</tspan>
       <tspan x="153.431559" y="-0.178125" style="font-size: 11px; font-family: 'DejaVu Sans'">0</tspan>
      </text>
     </g>
    </g>
    <g id="PathCollection_3">
     <g>
      <use xlink:href="#m698bb56d85" x="64.425469" y="70.959687" style="fill: #ffffff; fill-opacity: 0.9; stroke: #1976d2; stroke-opacity: 0.9; stroke-width: 2.5"/>
     </g>
    </g>
    <g id="text_25">
     <text style="font-size: 11px; font-family: 'Arial', 'Helvetica', 'DejaVu Sans', sans-serif; text-anchor: start" x="84.225469" y="73.847187" transform="rotate(-0 84.225469 73.847187)">Positive Class (+1)</text>
    </g>
    <g id="PathCollection_4">
     <g>
      <use xlink:href="#mddaf429aa8" x="64.425469" y="86.7825" style="fill: #d32f2f; fill-opacity: 0.9; stroke: #d32f2f; stroke-opacity: 0.9; stroke-width: 2.5"/>
     </g>
    </g>
    <g id="text_26">
     <text style="font-size: 11px; font-family: 'Arial', 'Helvetica', 'DejaVu Sans', sans-serif; text-anchor: start" x="84.225469" y="89.67" transform="rotate(-0 84.225469 89.67)">Negative Class (-1)</text>
    </g>
   </g>
   <g id="line2d_46">
    <defs>
     <path id="md6711625ea" d="M 0 4 
C 1.060812 4 2.078319 3.578535 2.828427 2.828427 
C 3.578535 2.078319 4 1.060812 4 0 
C 4 -1.060812 3.578535 -2.078319 2.828427 -2.828427 
C 2.078319 -3.578535 1.060812 -4 0 -4 
C -1.060812 -4 -2.078319 -3.578535 -2.828427 -2.828427 
C -3.578535 -2.078319 -4 -1.060812 -4 0 
C -4 1.060812 -3.578535 2.078319 -2.828427 2.828427 
C -2.078319 3.578535 -1.060812 4 0 4 
z
" style="stroke: #d32f2f"/>
    </defs>
    <g clip-path="url(#p709cf9d457)">
     <use xlink:href="#md6711625ea" x="372.433248" y="233.580271" style="fill: #d32f2f; stroke: #d32f2f"/>
    </g>
   </g>
   <g id="text_27">
    <path d="M 265.59047 261.861915 
L 266.657345 261.861915 
L 266.931095 267.141915 
L 269.38172 261.861915 
L 270.628595 261.861915 
L 270.992345 267.141915 
L 273.31922 261.861915 
L 274.397345 261.861915 
L 271.397345 268.424415 
L 270.137345 268.424415 
L 269.814845 262.986915 
L 267.306095 268.424415 
L 266.034845 268.424415 
L 265.59047 261.861915 
z
M 281.311407 270.95004 
L 280.180782 270.95004 
Q 279.282657 269.59629 278.813907 268.13754 
Q 278.345157 266.67879 278.345157 265.31379 
Q 278.345157 263.61879 278.926407 262.10754 
Q 279.430782 260.79504 280.203282 259.68879 
L 281.328282 259.68879 
Q 280.525782 261.46254 280.223907 262.709415 
Q 279.922032 263.954415 279.922032 265.34754 
Q 279.922032 266.309415 280.100157 267.318165 
Q 280.280157 268.32504 280.589532 269.23254 
Q 280.795782 269.830665 281.311407 270.95004 
z
M 282.605626 268.424415 
L 282.605626 259.83504 
L 284.293126 259.83504 
L 287.808751 265.570665 
L 287.808751 259.83504 
L 289.419376 259.83504 
L 289.419376 268.424415 
L 287.679376 268.424415 
L 284.216251 262.821915 
L 284.216251 268.424415 
L 282.605626 268.424415 
z
M 290.861017 265.225665 
Q 290.861017 264.404415 291.266017 263.63754 
Q 291.671017 262.86879 292.411642 262.465665 
Q 293.152267 262.060665 294.067267 262.060665 
Q 295.479142 262.060665 296.381017 262.97754 
Q 297.282892 263.894415 297.282892 265.29504 
Q 297.282892 266.706915 296.371642 267.636915 
Q 295.460392 268.56504 294.078517 268.56504 
Q 293.223517 268.56504 292.447267 268.17879 
Q 291.671017 267.790665 291.266017 267.044415 
Q 290.861017 266.298165 290.861017 265.225665 
z
M 292.548517 265.31379 
Q 292.548517 266.238165 292.987267 266.73129 
Q 293.427892 267.22254 294.072892 267.22254 
Q 294.717892 267.22254 295.152892 266.73129 
Q 295.589767 266.238165 295.589767 265.300665 
Q 295.589767 264.38754 295.152892 263.89629 
Q 294.717892 263.403165 294.072892 263.403165 
Q 293.427892 263.403165 292.987267 263.89629 
Q 292.548517 264.38754 292.548517 265.31379 
z
M 300.148595 268.424415 
L 298.502345 268.424415 
L 298.502345 262.20129 
L 300.032345 262.20129 
L 300.032345 263.08629 
Q 300.42422 262.46004 300.737345 262.26129 
Q 301.05047 262.060665 301.449845 262.060665 
Q 302.012345 262.060665 302.533595 262.371915 
L 302.023595 263.80629 
Q 301.607345 263.538165 301.251095 263.538165 
Q 300.90422 263.538165 300.66422 263.729415 
Q 300.42422 263.91879 300.28547 264.41754 
Q 300.148595 264.914415 300.148595 266.50254 
L 300.148595 268.424415 
z
M 303.119767 262.20129 
L 304.636642 262.20129 
L 304.636642 263.050665 
Q 305.452267 262.060665 306.577267 262.060665 
Q 307.173517 262.060665 307.612267 262.308165 
Q 308.052892 262.55379 308.334142 263.050665 
Q 308.744767 262.55379 309.219142 262.308165 
Q 309.693517 262.060665 310.233517 262.060665 
Q 310.917892 262.060665 311.392267 262.34004 
Q 311.866642 262.61754 312.101017 263.15754 
Q 312.271642 263.55504 312.271642 264.445665 
L 312.271642 268.424415 
L 310.625392 268.424415 
L 310.625392 264.86754 
Q 310.625392 263.94129 310.454767 263.673165 
Q 310.226017 263.320665 309.751642 263.320665 
Q 309.406642 263.320665 309.101017 263.53254 
Q 308.797267 263.74254 308.662267 264.149415 
Q 308.527267 264.55629 308.527267 265.435665 
L 308.527267 268.424415 
L 306.881017 268.424415 
L 306.881017 265.01379 
Q 306.881017 264.10629 306.792892 263.84379 
Q 306.704767 263.579415 306.519142 263.45004 
Q 306.335392 263.320665 306.020392 263.320665 
Q 305.639767 263.320665 305.334142 263.526915 
Q 305.030392 263.73129 304.897267 264.11754 
Q 304.766017 264.50379 304.766017 265.40004 
L 304.766017 268.424415 
L 303.119767 268.424415 
L 303.119767 262.20129 
z
M 315.143438 264.100665 
L 313.649063 263.830665 
Q 313.900313 262.92879 314.515313 262.495665 
Q 315.130313 262.060665 316.343438 262.060665 
Q 317.445938 262.060665 317.984063 262.32129 
Q 318.524063 262.581915 318.743438 262.983165 
Q 318.962813 263.384415 318.962813 264.456915 
L 318.945938 266.37879 
Q 318.945938 267.20004 319.024688 267.59004 
Q 319.103438 267.978165 319.320938 268.424415 
L 317.691563 268.424415 
Q 317.627813 268.259415 317.534063 267.93879 
Q 317.492813 267.790665 317.474063 267.74379 
Q 317.052188 268.154415 316.572188 268.360665 
Q 316.092188 268.56504 315.546563 268.56504 
Q 314.586563 268.56504 314.031563 268.04379 
Q 313.478438 267.52254 313.478438 266.725665 
Q 313.478438 266.196915 313.729688 265.784415 
Q 313.982813 265.371915 314.436563 265.15254 
Q 314.890313 264.93129 315.747188 264.768165 
Q 316.900313 264.550665 317.346563 264.363165 
L 317.346563 264.20004 
Q 317.346563 263.725665 317.112188 263.523165 
Q 316.877813 263.320665 316.227188 263.320665 
Q 315.786563 263.320665 315.540938 263.493165 
Q 315.295313 263.665665 315.143438 264.100665 
z
M 317.346563 265.435665 
Q 317.029688 265.540665 316.343438 265.68879 
Q 315.659063 265.83504 315.447188 265.975665 
Q 315.124688 266.204415 315.124688 266.55504 
Q 315.124688 266.90004 315.381563 267.153165 
Q 315.640313 267.404415 316.039688 267.404415 
Q 316.484063 267.404415 316.889063 267.111915 
Q 317.187188 266.88879 317.280938 266.56629 
Q 317.346563 266.35629 317.346563 265.76379 
L 317.346563 265.435665 
z
M 320.585392 268.424415 
L 320.585392 259.83504 
L 322.233517 259.83504 
L 322.233517 268.424415 
L 320.585392 268.424415 
z
M 329.456485 268.424415 
L 326.38711 259.83504 
L 328.267735 259.83504 
L 330.44086 266.19129 
L 332.54461 259.83504 
L 334.38586 259.83504 
L 331.308985 268.424415 
L 329.456485 268.424415 
z
M 338.861017 266.444415 
L 340.501642 266.72004 
Q 340.186642 267.621915 339.502267 268.094415 
Q 338.819767 268.56504 337.796017 268.56504 
Q 336.172267 268.56504 335.392267 267.50379 
Q 334.777267 266.654415 334.777267 265.360665 
Q 334.777267 263.81379 335.585392 262.938165 
Q 336.395392 262.060665 337.631017 262.060665 
Q 339.020392 262.060665 339.822892 262.97754 
Q 340.625392 263.894415 340.589767 265.788165 
L 336.464767 265.788165 
Q 336.483517 266.519415 336.864142 266.928165 
Q 337.244767 267.33504 337.812892 267.33504 
Q 338.199142 267.33504 338.461642 267.12504 
Q 338.726017 266.913165 338.861017 266.444415 
z
M 338.954767 264.779415 
Q 338.937892 264.06504 338.585392 263.69379 
Q 338.234767 263.320665 337.730392 263.320665 
Q 337.192267 263.320665 336.839767 263.71254 
Q 336.489142 264.10629 336.494767 264.779415 
L 338.954767 264.779415 
z
M 347.357345 264.040665 
L 345.73547 264.33504 
Q 345.65297 263.84754 345.362345 263.601915 
Q 345.07172 263.35629 344.61047 263.35629 
Q 343.993595 263.35629 343.62797 263.781915 
Q 343.262345 264.205665 343.262345 265.20129 
Q 343.262345 266.309415 343.633595 266.766915 
Q 344.00672 267.22254 344.63297 267.22254 
Q 345.10172 267.22254 345.399845 266.95629 
Q 345.699845 266.69004 345.82172 266.039415 
L 347.439845 266.31504 
Q 347.188595 267.42879 346.472345 267.996915 
Q 345.75797 268.56504 344.556095 268.56504 
Q 343.191095 268.56504 342.37922 267.704415 
Q 341.56922 266.841915 341.56922 265.319415 
Q 341.56922 263.778165 342.38297 262.919415 
Q 343.19672 262.060665 344.586095 262.060665 
Q 345.722345 262.060665 346.393595 262.55004 
Q 347.064845 263.039415 347.357345 264.040665 
z
M 351.458673 262.20129 
L 351.458673 263.51379 
L 350.333673 263.51379 
L 350.333673 266.02254 
Q 350.333673 266.78379 350.365548 266.909415 
Q 350.399298 267.03504 350.513673 267.11754 
Q 350.628048 267.20004 350.791173 267.20004 
Q 351.019923 267.20004 351.453048 267.040665 
L 351.593673 268.319415 
Q 351.019923 268.56504 350.292423 268.56504 
Q 349.848048 268.56504 349.489923 268.416915 
Q 349.133673 268.266915 348.966798 268.02879 
Q 348.799923 267.790665 348.734298 267.38754 
Q 348.681798 267.100665 348.681798 266.226915 
L 348.681798 263.51379 
L 347.926173 263.51379 
L 347.926173 262.20129 
L 348.681798 262.20129 
L 348.681798 260.965665 
L 350.333673 260.00379 
L 350.333673 262.20129 
L 351.458673 262.20129 
z
M 352.220392 265.225665 
Q 352.220392 264.404415 352.625392 263.63754 
Q 353.030392 262.86879 353.771017 262.465665 
Q 354.511642 262.060665 355.426642 262.060665 
Q 356.838517 262.060665 357.740392 262.97754 
Q 358.642267 263.894415 358.642267 265.29504 
Q 358.642267 266.706915 357.731017 267.636915 
Q 356.819767 268.56504 355.437892 268.56504 
Q 354.582892 268.56504 353.806642 268.17879 
Q 353.030392 267.790665 352.625392 267.044415 
Q 352.220392 266.298165 352.220392 265.225665 
z
M 353.907892 265.31379 
Q 353.907892 266.238165 354.346642 266.73129 
Q 354.787267 267.22254 355.432267 267.22254 
Q 356.077267 267.22254 356.512267 266.73129 
Q 356.949142 266.238165 356.949142 265.300665 
Q 356.949142 264.38754 356.512267 263.89629 
Q 356.077267 263.403165 355.432267 263.403165 
Q 354.787267 263.403165 354.346642 263.89629 
Q 353.907892 264.38754 353.907892 265.31379 
z
M 361.50797 268.424415 
L 359.86172 268.424415 
L 359.86172 262.20129 
L 361.39172 262.20129 
L 361.39172 263.08629 
Q 361.783595 262.46004 362.09672 262.26129 
Q 362.409845 262.060665 362.80922 262.060665 
Q 363.37172 262.060665 363.89297 262.371915 
L 363.38297 263.80629 
Q 362.96672 263.538165 362.61047 263.538165 
Q 362.263595 263.538165 362.023595 263.729415 
Q 361.783595 263.91879 361.644845 264.41754 
Q 361.50797 264.914415 361.50797 266.50254 
L 361.50797 268.424415 
z
M 364.145392 270.95004 
Q 364.631017 269.90754 364.829767 269.350665 
Q 365.030392 268.79379 365.199142 268.068165 
Q 365.369767 267.340665 365.450392 266.688165 
Q 365.532892 266.03379 365.532892 265.34754 
Q 365.532892 263.954415 365.234767 262.709415 
Q 364.936642 261.46254 364.132267 259.68879 
L 365.251642 259.68879 
Q 366.136642 260.946915 366.626017 262.360665 
Q 367.115392 263.77254 367.115392 265.225665 
Q 367.115392 266.45004 366.729142 267.850665 
Q 366.288517 269.42004 365.281642 270.95004 
L 364.145392 270.95004 
z
" style="fill: #d32f2f; stroke: #ffffff; stroke-width: 3"/>
    <path d="M 265.59047 261.861915 
L 266.657345 261.861915 
L 266.931095 267.141915 
L 269.38172 261.861915 
L 270.628595 261.861915 
L 270.992345 267.141915 
L 273.31922 261.861915 
L 274.397345 261.861915 
L 271.397345 268.424415 
L 270.137345 268.424415 
L 269.814845 262.986915 
L 267.306095 268.424415 
L 266.034845 268.424415 
L 265.59047 261.861915 
z
M 281.311407 270.95004 
L 280.180782 270.95004 
Q 279.282657 269.59629 278.813907 268.13754 
Q 278.345157 266.67879 278.345157 265.31379 
Q 278.345157 263.61879 278.926407 262.10754 
Q 279.430782 260.79504 280.203282 259.68879 
L 281.328282 259.68879 
Q 280.525782 261.46254 280.223907 262.709415 
Q 279.922032 263.954415 279.922032 265.34754 
Q 279.922032 266.309415 280.100157 267.318165 
Q 280.280157 268.32504 280.589532 269.23254 
Q 280.795782 269.830665 281.311407 270.95004 
z
M 282.605626 268.424415 
L 282.605626 259.83504 
L 284.293126 259.83504 
L 287.808751 265.570665 
L 287.808751 259.83504 
L 289.419376 259.83504 
L 289.419376 268.424415 
L 287.679376 268.424415 
L 284.216251 262.821915 
L 284.216251 268.424415 
L 282.605626 268.424415 
z
M 290.861017 265.225665 
Q 290.861017 264.404415 291.266017 263.63754 
Q 291.671017 262.86879 292.411642 262.465665 
Q 293.152267 262.060665 294.067267 262.060665 
Q 295.479142 262.060665 296.381017 262.97754 
Q 297.282892 263.894415 297.282892 265.29504 
Q 297.282892 266.706915 296.371642 267.636915 
Q 295.460392 268.56504 294.078517 268.56504 
Q 293.223517 268.56504 292.447267 268.17879 
Q 291.671017 267.790665 291.266017 267.044415 
Q 290.861017 266.298165 290.861017 265.225665 
z
M 292.548517 265.31379 
Q 292.548517 266.238165 292.987267 266.73129 
Q 293.427892 267.22254 294.072892 267.22254 
Q 294.717892 267.22254 295.152892 266.73129 
Q 295.589767 266.238165 295.589767 265.300665 
Q 295.589767 264.38754 295.152892 263.89629 
Q 294.717892 263.403165 294.072892 263.403165 
Q 293.427892 263.403165 292.987267 263.89629 
Q 292.548517 264.38754 292.548517 265.31379 
z
M 300.148595 268.424415 
L 298.502345 268.424415 
L 298.502345 262.20129 
L 300.032345 262.20129 
L 300.032345 263.08629 
Q 300.42422 262.46004 300.737345 262.26129 
Q 301.05047 262.060665 301.449845 262.060665 
Q 302.012345 262.060665 302.533595 262.371915 
L 302.023595 263.80629 
Q 301.607345 263.538165 301.251095 263.538165 
Q 300.90422 263.538165 300.66422 263.729415 
Q 300.42422 263.91879 300.28547 264.41754 
Q 300.148595 264.914415 300.148595 266.50254 
L 300.148595 268.424415 
z
M 303.119767 262.20129 
L 304.636642 262.20129 
L 304.636642 263.050665 
Q 305.452267 262.060665 306.577267 262.060665 
Q 307.173517 262.060665 307.612267 262.308165 
Q 308.052892 262.55379 308.334142 263.050665 
Q 308.744767 262.55379 309.219142 262.308165 
Q 309.693517 262.060665 310.233517 262.060665 
Q 310.917892 262.060665 311.392267 262.34004 
Q 311.866642 262.61754 312.101017 263.15754 
Q 312.271642 263.55504 312.271642 264.445665 
L 312.271642 268.424415 
L 310.625392 268.424415 
L 310.625392 264.86754 
Q 310.625392 263.94129 310.454767 263.673165 
Q 310.226017 263.320665 309.751642 263.320665 
Q 309.406642 263.320665 309.101017 263.53254 
Q 308.797267 263.74254 308.662267 264.149415 
Q 308.527267 264.55629 308.527267 265.435665 
L 308.527267 268.424415 
L 306.881017 268.424415 
L 306.881017 265.01379 
Q 306.881017 264.10629 306.792892 263.84379 
Q 306.704767 263.579415 306.519142 263.45004 
Q 306.335392 263.320665 306.020392 263.320665 
Q 305.639767 263.320665 305.334142 263.526915 
Q 305.030392 263.73129 304.897267 264.11754 
Q 304.766017 264.50379 304.766017 265.40004 
L 304.766017 268.424415 
L 303.119767 268.424415 
L 303.119767 262.20129 
z
M 315.143438 264.100665 
L 313.649063 263.830665 
Q 313.900313 262.92879 314.515313 262.495665 
Q 315.130313 262.060665 316.343438 262.060665 
Q 317.445938 262.060665 317.984063 262.32129 
Q 318.524063 262.581915 318.743438 262.983165 
Q 318.962813 263.384415 318.962813 264.456915 
L 318.945938 266.37879 
Q 318.945938 267.20004 319.024688 267.59004 
Q 319.103438 267.978165 319.320938 268.424415 
L 317.691563 268.424415 
Q 317.627813 268.259415 317.534063 267.93879 
Q 317.492813 267.790665 317.474063 267.74379 
Q 317.052188 268.154415 316.572188 268.360665 
Q 316.092188 268.56504 315.546563 268.56504 
Q 314.586563 268.56504 314.031563 268.04379 
Q 313.478438 267.52254 313.478438 266.725665 
Q 313.478438 266.196915 313.729688 265.784415 
Q 313.982813 265.371915 314.436563 265.15254 
Q 314.890313 264.93129 315.747188 264.768165 
Q 316.900313 264.550665 317.346563 264.363165 
L 317.346563 264.20004 
Q 317.346563 263.725665 317.112188 263.523165 
Q 316.877813 263.320665 316.227188 263.320665 
Q 315.786563 263.320665 315.540938 263.493165 
Q 315.295313 263.665665 315.143438 264.100665 
z
M 317.346563 265.435665 
Q 317.029688 265.540665 316.343438 265.68879 
Q 315.659063 265.83504 315.447188 265.975665 
Q 315.124688 266.204415 315.124688 266.55504 
Q 315.124688 266.90004 315.381563 267.153165 
Q 315.640313 267.404415 316.039688 267.404415 
Q 316.484063 267.404415 316.889063 267.111915 
Q 317.187188 266.88879 317.280938 266.56629 
Q 317.346563 266.35629 317.346563 265.76379 
L 317.346563 265.435665 
z
M 320.585392 268.424415 
L 320.585392 259.83504 
L 322.233517 259.83504 
L 322.233517 268.424415 
L 320.585392 268.424415 
z
M 329.456485 268.424415 
L 326.38711 259.83504 
L 328.267735 259.83504 
L 330.44086 266.19129 
L 332.54461 259.83504 
L 334.38586 259.83504 
L 331.308985 268.424415 
L 329.456485 268.424415 
z
M 338.861017 266.444415 
L 340.501642 266.72004 
Q 340.186642 267.621915 339.502267 268.094415 
Q 338.819767 268.56504 337.796017 268.56504 
Q 336.172267 268.56504 335.392267 267.50379 
Q 334.777267 266.654415 334.777267 265.360665 
Q 334.777267 263.81379 335.585392 262.938165 
Q 336.395392 262.060665 337.631017 262.060665 
Q 339.020392 262.060665 339.822892 262.97754 
Q 340.625392 263.894415 340.589767 265.788165 
L 336.464767 265.788165 
Q 336.483517 266.519415 336.864142 266.928165 
Q 337.244767 267.33504 337.812892 267.33504 
Q 338.199142 267.33504 338.461642 267.12504 
Q 338.726017 266.913165 338.861017 266.444415 
z
M 338.954767 264.779415 
Q 338.937892 264.06504 338.585392 263.69379 
Q 338.234767 263.320665 337.730392 263.320665 
Q 337.192267 263.320665 336.839767 263.71254 
Q 336.489142 264.10629 336.494767 264.779415 
L 338.954767 264.779415 
z
M 347.357345 264.040665 
L 345.73547 264.33504 
Q 345.65297 263.84754 345.362345 263.601915 
Q 345.07172 263.35629 344.61047 263.35629 
Q 343.993595 263.35629 343.62797 263.781915 
Q 343.262345 264.205665 343.262345 265.20129 
Q 343.262345 266.309415 343.633595 266.766915 
Q 344.00672 267.22254 344.63297 267.22254 
Q 345.10172 267.22254 345.399845 266.95629 
Q 345.699845 266.69004 345.82172 266.039415 
L 347.439845 266.31504 
Q 347.188595 267.42879 346.472345 267.996915 
Q 345.75797 268.56504 344.556095 268.56504 
Q 343.191095 268.56504 342.37922 267.704415 
Q 341.56922 266.841915 341.56922 265.319415 
Q 341.56922 263.778165 342.38297 262.919415 
Q 343.19672 262.060665 344.586095 262.060665 
Q 345.722345 262.060665 346.393595 262.55004 
Q 347.064845 263.039415 347.357345 264.040665 
z
M 351.458673 262.20129 
L 351.458673 263.51379 
L 350.333673 263.51379 
L 350.333673 266.02254 
Q 350.333673 266.78379 350.365548 266.909415 
Q 350.399298 267.03504 350.513673 267.11754 
Q 350.628048 267.20004 350.791173 267.20004 
Q 351.019923 267.20004 351.453048 267.040665 
L 351.593673 268.319415 
Q 351.019923 268.56504 350.292423 268.56504 
Q 349.848048 268.56504 349.489923 268.416915 
Q 349.133673 268.266915 348.966798 268.02879 
Q 348.799923 267.790665 348.734298 267.38754 
Q 348.681798 267.100665 348.681798 266.226915 
L 348.681798 263.51379 
L 347.926173 263.51379 
L 347.926173 262.20129 
L 348.681798 262.20129 
L 348.681798 260.965665 
L 350.333673 260.00379 
L 350.333673 262.20129 
L 351.458673 262.20129 
z
M 352.220392 265.225665 
Q 352.220392 264.404415 352.625392 263.63754 
Q 353.030392 262.86879 353.771017 262.465665 
Q 354.511642 262.060665 355.426642 262.060665 
Q 356.838517 262.060665 357.740392 262.97754 
Q 358.642267 263.894415 358.642267 265.29504 
Q 358.642267 266.706915 357.731017 267.636915 
Q 356.819767 268.56504 355.437892 268.56504 
Q 354.582892 268.56504 353.806642 268.17879 
Q 353.030392 267.790665 352.625392 267.044415 
Q 352.220392 266.298165 352.220392 265.225665 
z
M 353.907892 265.31379 
Q 353.907892 266.238165 354.346642 266.73129 
Q 354.787267 267.22254 355.432267 267.22254 
Q 356.077267 267.22254 356.512267 266.73129 
Q 356.949142 266.238165 356.949142 265.300665 
Q 356.949142 264.38754 356.512267 263.89629 
Q 356.077267 263.403165 355.432267 263.403165 
Q 354.787267 263.403165 354.346642 263.89629 
Q 353.907892 264.38754 353.907892 265.31379 
z
M 361.50797 268.424415 
L 359.86172 268.424415 
L 359.86172 262.20129 
L 361.39172 262.20129 
L 361.39172 263.08629 
Q 361.783595 262.46004 362.09672 262.26129 
Q 362.409845 262.060665 362.80922 262.060665 
Q 363.37172 262.060665 363.89297 262.371915 
L 363.38297 263.80629 
Q 362.96672 263.538165 362.61047 263.538165 
Q 362.263595 263.538165 362.023595 263.729415 
Q 361.783595 263.91879 361.644845 264.41754 
Q 361.50797 264.914415 361.50797 266.50254 
L 361.50797 268.424415 
z
M 364.145392 270.95004 
Q 364.631017 269.90754 364.829767 269.350665 
Q 365.030392 268.79379 365.199142 268.068165 
Q 365.369767 267.340665 365.450392 266.688165 
Q 365.532892 266.03379 365.532892 265.34754 
Q 365.532892 263.954415 365.234767 262.709415 
Q 364.936642 261.46254 364.132267 259.68879 
L 365.251642 259.68879 
Q 366.136642 260.946915 366.626017 262.360665 
Q 367.115392 263.77254 367.115392 265.225665 
Q 367.115392 266.45004 366.729142 267.850665 
Q 366.288517 269.42004 365.281642 270.95004 
L 364.145392 270.95004 
z
" style="fill: #d32f2f"/>
   </g>
   <g id="text_28">
    <g id="patch_10">
     <path d="M 262.404409 324.222386 
L 338.744409 324.222386 
Q 344.244409 324.222386 344.244409 318.722386 
L 344.244409 299.802386 
Q 344.244409 294.302386 338.744409 294.302386 
L 262.404409 294.302386 
Q 256.904409 294.302386 256.904409 299.802386 
L 256.904409 318.722386 
Q 256.904409 324.222386 262.404409 324.222386 
z
" style="fill: #ffff00; opacity: 0.7; stroke: #000000; stroke-linejoin: miter"/>
    </g>
    <!-- $d = \frac{|b|}{||w||} = 0.83$ -->
    <g transform="translate(262.404409 312.342386)">
     <text>
      <tspan x="0" y="-0.479688" style="font-style: oblique; font-size: 11px; font-family: 'DejaVu Sans'">d</tspan>
      <tspan x="9.125488" y="-0.479688" style="font-size: 11px; font-family: 'DejaVu Sans'">=</tspan>
      <tspan x="40.677979" y="-0.479688" style="font-size: 11px; font-family: 'DejaVu Sans'">=</tspan>
      <tspan x="52.037842" y="-0.479688" style="font-size: 11px; font-family: 'DejaVu Sans'">0</tspan>
      <tspan x="59.036377" y="-0.479688" style="font-size: 11px; font-family: 'DejaVu Sans'">.</tspan>
      <tspan x="62.282959" y="-0.479688" style="font-size: 11px; font-family: 'DejaVu Sans'">8</tspan>
      <tspan x="69.281494" y="-0.479688" style="font-size: 11px; font-family: 'DejaVu Sans'">3</tspan>
      <tspan x="20.485352" y="4.021875" style="font-size: 7.7px; font-family: 'DejaVu Sans'">|</tspan>
      <tspan x="23.07959" y="4.021875" style="font-size: 7.7px; font-family: 'DejaVu Sans'">|</tspan>
      <tspan x="23.485352" y="-7.115625" style="font-size: 7.7px; font-family: 'DejaVu Sans'">|</tspan>
      <tspan x="30.967285" y="-7.115625" style="font-size: 7.7px; font-family: 'DejaVu Sans'">|</tspan>
      <tspan x="31.971436" y="4.021875" style="font-size: 7.7px; font-family: 'DejaVu Sans'">|</tspan>
      <tspan x="34.565674" y="4.021875" style="font-size: 7.7px; font-family: 'DejaVu Sans'">|</tspan>
      <tspan x="25.673828" y="4.021875" style="font-style: oblique; font-size: 7.7px; font-family: 'DejaVu Sans'">w</tspan>
      <tspan x="26.07959" y="-7.115625" style="font-style: oblique; font-size: 7.7px; font-family: 'DejaVu Sans'">b</tspan>
     </text>
     <rect x="20.485352" y="-3.55" width="16.674561" height="0.6875"/>
    </g>
   </g>
   <g id="text_29">
    <g id="patch_11">
     <path d="M 404.23651 140.807552 
L 494.24776 140.807552 
Q 503.84776 140.807552 503.84776 131.207552 
L 503.84776 107.160677 
Q 503.84776 97.560677 494.24776 97.560677 
L 404.23651 97.560677 
Q 394.63651 97.560677 394.63651 107.160677 
L 394.63651 131.207552 
Q 394.63651 140.807552 404.23651 140.807552 
z
" style="fill: #ffffff; opacity: 0.9; stroke: #1976d2; stroke-width: 2; stroke-linejoin: miter"/>
    </g>
    <text style="font-weight: 700; font-size: 12px; font-family: 'Arial', 'Helvetica', 'DejaVu Sans', sans-serif; fill: #1976d2" transform="translate(404.23651 115.907552)">Positive Region</text>
    <!-- $w^Tx + b &gt; 0$ -->
    <g style="fill: #1976d2" transform="translate(415.402135 128.839427)">
     <text>
      <tspan x="0" y="-0.28125" style="font-style: oblique; font-size: 12px; font-family: 'DejaVu Sans'; fill: #1976d2">w</tspan>
      <tspan x="15.80957" y="-0.28125" style="font-style: oblique; font-size: 12px; font-family: 'DejaVu Sans'; fill: #1976d2">x</tspan>
      <tspan x="37.641602" y="-0.28125" style="font-style: oblique; font-size: 12px; font-family: 'DejaVu Sans'; fill: #1976d2">b</tspan>
      <tspan x="10.350391" y="-4.875" style="font-style: oblique; font-size: 8.4px; font-family: 'DejaVu Sans'; fill: #1976d2">T</tspan>
      <tspan x="25.249023" y="-0.28125" style="font-size: 12px; font-family: 'DejaVu Sans'; fill: #1976d2">+</tspan>
      <tspan x="47.59668" y="-0.28125" style="font-size: 12px; font-family: 'DejaVu Sans'; fill: #1976d2">&gt;</tspan>
      <tspan x="59.989258" y="-0.28125" style="font-size: 12px; font-family: 'DejaVu Sans'; fill: #1976d2">0</tspan>
     </text>
    </g>
   </g>
   <g id="text_30">
    <g id="patch_12">
     <path d="M 77.662552 465.380885 
L 171.675052 465.380885 
Q 181.275052 465.380885 181.275052 455.780885 
L 181.275052 431.73401 
Q 181.275052 422.13401 171.675052 422.13401 
L 77.662552 422.13401 
Q 68.062552 422.13401 68.062552 431.73401 
L 68.062552 455.780885 
Q 68.062552 465.380885 77.662552 465.380885 
z
" style="fill: #ffffff; opacity: 0.9; stroke: #d32f2f; stroke-width: 2; stroke-linejoin: miter"/>
    </g>
    <text style="font-weight: 700; font-size: 12px; font-family: 'Arial', 'Helvetica', 'DejaVu Sans', sans-serif; fill: #d32f2f" transform="translate(77.662552 440.480885)">Negative Region</text>
    <!-- $w^Tx + b &lt; 0$ -->
    <g style="fill: #d32f2f" transform="translate(90.828802 453.41276)">
     <text>
      <tspan x="0" y="-0.28125" style="font-style: oblique; font-size: 12px; font-family: 'DejaVu Sans'; fill: #d32f2f">w</tspan>
      <tspan x="15.80957" y="-0.28125" style="font-style: oblique; font-size: 12px; font-family: 'DejaVu Sans'; fill: #d32f2f">x</tspan>
      <tspan x="37.641602" y="-0.28125" style="font-style: oblique; font-size: 12px; font-family: 'DejaVu Sans'; fill: #d32f2f">b</tspan>
      <tspan x="10.350391" y="-4.875" style="font-style: oblique; font-size: 8.4px; font-family: 'DejaVu Sans'; fill: #d32f2f">T</tspan>
      <tspan x="25.249023" y="-0.28125" style="font-size: 12px; font-family: 'DejaVu Sans'; fill: #d32f2f">+</tspan>
      <tspan x="47.59668" y="-0.28125" style="font-size: 12px; font-family: 'DejaVu Sans'; fill: #d32f2f">&lt;</tspan>
      <tspan x="59.989258" y="-0.28125" style="font-size: 12px; font-family: 'DejaVu Sans'; fill: #d32f2f">0</tspan>
     </text>
    </g>
   </g>
  </g>
 </g>
 <defs>
  <clipPath id="p709cf9d457">
   <rect x="43.525469" y="38.119531" width="486.86" height="486.86"/>
  </clipPath>
 </defs>
</svg>
